<svg width="92" height="93" viewBox="0 0 92 93" fill="none" xmlns="http://www.w3.org/2000/svg">
<g filter="url(#filter0_d_4135_2326)">
<circle r="40" transform="matrix(1 0 0 -1 46 45.4463)" fill="url(#paint0_linear_4135_2326)"/>
<path d="M63.5275 27.6642H61.8032V24.1143H58.1687V32.9215H54.5343V27.6642H37.0889V24.1819H33.4544V32.9722H29.8199V27.6642H28.1464C26.2193 27.6642 24.6641 29.2194 24.6641 31.1465V63.0453C24.6641 64.9724 26.2362 66.5276 28.1464 66.5276H63.5444C65.4715 66.5276 67.0267 64.9724 67.0267 63.0453V31.1465C67.0267 29.2194 65.4546 27.6642 63.5275 27.6642ZM37.2917 61.2703H30.0735V57.602H37.2917V61.2703ZM37.2917 52.4631H30.0735V48.7948H37.2917V52.4631ZM37.2917 43.7404H30.0735V40.0721H37.2917V43.7404ZM42.2954 40.0721H49.5136V43.7404H42.2954V40.0721ZM49.5475 61.2703H42.3292V57.602H49.5475V61.2703ZM49.5475 52.4631H42.3292V48.7948H49.5475V52.4631ZM61.7863 61.2703H54.5681V57.602H61.7863V61.2703ZM61.7863 52.4631H54.5681V48.7948H61.7863V52.4631ZM62.378 40.3764L60.417 41.9147C60.6706 42.7261 60.9411 43.5375 61.1946 44.332C61.3299 44.7546 60.8396 45.1096 60.4846 44.8561C59.7578 44.3489 59.0309 43.8418 58.304 43.3347C57.5771 43.8418 56.8502 44.3489 56.1233 44.8561C55.7514 45.1096 55.2781 44.7546 55.4133 44.332C55.6669 43.5206 55.9373 42.7092 56.1909 41.9147L54.23 40.3764C53.875 40.1059 54.0779 39.548 54.5174 39.548H56.9854C57.2728 38.669 57.5602 37.8069 57.8475 36.9279C57.9828 36.5052 58.5914 36.5052 58.7266 36.9279C59.014 37.8069 59.3013 38.669 59.5887 39.548H62.0568C62.547 39.5311 62.7329 40.1059 62.378 40.3764Z" fill="white"/>
</g>
<defs>
<filter id="filter0_d_4135_2326" x="0" y="0.446289" width="92" height="92" filterUnits="userSpaceOnUse" color-interpolation-filters="sRGB">
<feFlood flood-opacity="0" result="BackgroundImageFix"/>
<feColorMatrix in="SourceAlpha" type="matrix" values="0 0 0 0 0 0 0 0 0 0 0 0 0 0 0 0 0 0 127 0" result="hardAlpha"/>
<feOffset dy="1"/>
<feGaussianBlur stdDeviation="3"/>
<feComposite in2="hardAlpha" operator="out"/>
<feColorMatrix type="matrix" values="0 0 0 0 0 0 0 0 0 0 0 0 0 0 0 0 0 0 0.25 0"/>
<feBlend mode="normal" in2="BackgroundImageFix" result="effect1_dropShadow_4135_2326"/>
<feBlend mode="normal" in="SourceGraphic" in2="effect1_dropShadow_4135_2326" result="shape"/>
</filter>
<linearGradient id="paint0_linear_4135_2326" x1="40" y1="0" x2="40" y2="80" gradientUnits="userSpaceOnUse">
<stop stop-color="#FF9F00"/>
<stop offset="1" stop-color="#F17400"/>
</linearGradient>
</defs>
</svg>
