<svg width="16" height="21" viewBox="0 0 16 21" fill="none" xmlns="http://www.w3.org/2000/svg">
<path d="M3.28125 0.871094V3.89039L11.9392 10.8697L3.28125 17.8489V20.8711L15.6856 10.8697L3.28125 0.871094Z" fill="url(#paint0_linear_3388_616)"/>
<g opacity="0.3">
<path d="M1.70312 5.21094V19.2953L10.4389 12.2531L1.70312 5.21094Z" fill="white"/>
<path d="M1.64062 5.16797V19.2495L10.3739 12.2073L1.64062 5.16797Z" fill="#F8F8F8"/>
<path d="M1.59375 5.12305V19.2074L10.327 12.1652L1.59375 5.12305Z" fill="#F2F2F2"/>
<path d="M1.53125 5.07812V19.1625L10.2671 12.1203L1.53125 5.07812Z" fill="#EBEBEB"/>
<path d="M1.48438 5.03516V19.1195L10.2202 12.0773L1.48438 5.03516Z" fill="#E5E5E5"/>
<path d="M1.42188 4.98828V19.0726L10.1577 12.0305L1.42188 4.98828Z" fill="#DEDEDE"/>
<path d="M1.36719 4.94531V19.0268L10.103 11.9846L1.36719 4.94531Z" fill="#D8D8D8"/>
<path d="M1.3125 4.90039V18.9847L10.0458 11.9426L1.3125 4.90039Z" fill="#D1D1D1"/>
<path d="M1.25781 4.85547V18.9398L9.99111 11.8976L1.25781 4.85547Z" fill="#CACACA"/>
<path d="M1.20312 4.8125V18.8968L9.93893 11.8547L1.20312 4.8125Z" fill="#C4C4C4"/>
<path d="M1.14844 4.76562V18.85L9.88424 11.8078L1.14844 4.76562Z" fill="#BDBDBD"/>
<path d="M1.09375 4.7207V18.805L9.82955 11.7629L1.09375 4.7207Z" fill="#B7B7B7"/>
<path d="M1.03906 4.67578V18.7601L9.77236 11.718L1.03906 4.67578Z" fill="#B0B0B0"/>
<path d="M0.984375 4.63281V18.7172L9.71767 11.675L0.984375 4.63281Z" fill="#A9A9A9"/>
<path d="M0.9375 4.58984V18.6742L9.67079 11.632L0.9375 4.58984Z" fill="#A3A3A3"/>
<path d="M0.874756 4.54297V18.6273L9.61056 11.5851L0.874756 4.54297Z" fill="#9C9C9C"/>
<path d="M0.820312 4.49609V18.5804L9.55611 11.5383L0.820312 4.49609Z" fill="#969696"/>
<path d="M0.765625 4.45312V18.5375L9.50143 11.4953L0.765625 4.45312Z" fill="#8F8F8F"/>
<path d="M0.71875 4.4082V18.4925L9.45204 11.4504L0.71875 4.4082Z" fill="#898989"/>
<path d="M0.65625 4.36523V18.4496L9.38954 11.4074L0.65625 4.36523Z" fill="#828282"/>
<path d="M0.609375 4.32031V18.4047L9.34518 11.3625L0.609375 4.32031Z" fill="#7B7B7B"/>
<path d="M0.546875 4.27344V18.3578L9.28268 11.3156L0.546875 4.27344Z" fill="#757575"/>
<path d="M0.492188 4.23047V18.3148L9.22799 11.2726L0.492188 4.23047Z" fill="#6E6E6E"/>
<path d="M0.4375 4.18555V18.2699L9.1733 11.2277L0.4375 4.18555Z" fill="#686868"/>
<path d="M0.382812 4.14258V18.2241L9.11611 11.1848L0.382812 4.14258Z" fill="#616161"/>
<path d="M0.328125 4.09766V18.182L9.06142 11.1398L0.328125 4.09766Z" fill="#5A5A5A"/>
<path d="M0.273438 4.05078V18.1351L9.00924 11.093L0.273438 4.05078Z" fill="#545454"/>
<path d="M0.21875 4.00781V18.0922L8.95456 11.05L0.21875 4.00781Z" fill="#4D4D4D"/>
<path d="M0.15625 3.96289V18.0472L8.89206 11.0051L0.15625 3.96289Z" fill="#474747"/>
<path d="M0.109375 3.91992V18.0014L8.84267 10.9621L0.109375 3.91992Z" fill="#404040"/>
<path d="M0.0546875 3.875V17.9593L8.78798 10.9172L0.0546875 3.875Z" fill="#3A3A3A"/>
<path d="M0 3.82812V17.9125L8.7358 10.8703L0 3.82812Z" fill="#333333"/>
</g>
<path d="M0 3.82812V17.9125L8.7358 10.8703L0 3.82812Z" fill="url(#paint1_linear_3388_616)"/>
<g style="mix-blend-mode:screen">
<path d="M3.28125 0.871094V3.89039L11.9392 10.8697H15.6856L3.28125 0.871094Z" fill="url(#paint2_linear_3388_616)"/>
<path d="M0 3.82812V10.8703H8.7358L4.36665 7.35064L0 3.82812Z" fill="url(#paint3_linear_3388_616)"/>
</g>
<defs>
<linearGradient id="paint0_linear_3388_616" x1="3.28125" y1="0.871094" x2="15.1989" y2="0.872834" gradientUnits="userSpaceOnUse">
<stop stop-color="#68DBFF"/>
<stop offset="1" stop-color="#2A99FF"/>
</linearGradient>
<linearGradient id="paint1_linear_3388_616" x1="0" y1="3.82812" x2="8.39302" y2="3.82935" gradientUnits="userSpaceOnUse">
<stop stop-color="#68DBFF"/>
<stop offset="1" stop-color="#2A99FF"/>
</linearGradient>
<linearGradient id="paint2_linear_3388_616" x1="9.48405" y1="2.76908" x2="9.48405" y2="13.1477" gradientUnits="userSpaceOnUse">
<stop/>
<stop offset="0.217" stop-color="#030303"/>
<stop offset="0.3924" stop-color="#0D0D0D"/>
<stop offset="0.5532" stop-color="#1E1E1E"/>
<stop offset="0.7054" stop-color="#363636"/>
<stop offset="0.8514" stop-color="#555555"/>
<stop offset="0.9911" stop-color="#7A7A7A"/>
<stop offset="1" stop-color="#7D7D7D"/>
</linearGradient>
<linearGradient id="paint3_linear_3388_616" x1="4.36717" y1="2.76971" x2="4.36717" y2="13.1483" gradientUnits="userSpaceOnUse">
<stop/>
<stop offset="0.217" stop-color="#030303"/>
<stop offset="0.3924" stop-color="#0D0D0D"/>
<stop offset="0.5532" stop-color="#1E1E1E"/>
<stop offset="0.7054" stop-color="#363636"/>
<stop offset="0.8514" stop-color="#555555"/>
<stop offset="0.9911" stop-color="#7A7A7A"/>
<stop offset="1" stop-color="#7D7D7D"/>
</linearGradient>
</defs>
</svg>
