<svg width="22" height="21" viewBox="0 0 22 21" fill="none" xmlns="http://www.w3.org/2000/svg">
<path d="M0.532124 10.3224C0.577818 10.1704 0.577816 10.0185 0.623511 9.86651C0.989065 8.34698 2.35989 7.43527 3.73072 7.68852C5.05586 7.94178 6.06113 9.36 5.96974 10.8795C5.87835 12.3991 4.736 13.6147 3.41086 13.6653C2.04004 13.7666 0.806292 12.703 0.577821 11.1834C0.577821 11.1328 0.532124 11.0315 0.532124 10.9808C0.532124 10.7782 0.532124 10.5756 0.532124 10.3224Z" fill="#FA72B2"/>
<path d="M11.1334 7.53725C11.9102 6.82814 12.7327 6.62553 13.6466 7.03074C15.1088 7.6892 15.52 9.76589 14.5148 11.0828C14.4691 11.1335 14.4234 11.1841 14.3777 11.2854C13.4638 12.2984 12.5499 13.3115 11.636 14.3245C11.3162 14.679 10.9506 14.679 10.6764 14.3245C9.76255 13.3115 8.84866 12.2984 7.93478 11.2854C6.70103 9.86719 7.15798 7.5879 8.80297 6.98009C9.57977 6.67618 10.3109 6.82814 10.9506 7.3853C11.042 7.43595 11.0877 7.4866 11.1334 7.53725Z" fill="#FA72B2"/>
<path d="M16.2518 10.6777C16.2518 9.00625 17.4856 7.63867 18.9935 7.63867C20.5014 7.63867 21.6895 9.00625 21.6895 10.6777C21.6895 12.3492 20.4557 13.7168 18.9478 13.7168C17.4856 13.7168 16.2518 12.3492 16.2518 10.6777Z" fill="#FA72B2"/>
<path d="M5.69581 7.18326C4.78193 6.42349 3.77665 6.17024 2.5886 6.32219C2.67999 6.17024 2.72568 6.01829 2.77137 5.86633C3.95943 3.38444 5.74151 1.66231 8.11761 0.75059C9.03149 0.396033 9.94538 0.953193 10.1739 1.96621C10.3566 2.82728 9.94538 3.68834 9.21427 3.99225C8.34608 4.3468 7.52358 4.80266 6.88386 5.56243C6.5183 5.96764 6.19845 6.47415 5.87859 6.93C5.7415 7.03131 5.74151 7.08196 5.69581 7.18326Z" fill="#FA72B2"/>
<path d="M19.6311 6.32194C18.5344 6.11934 17.4835 6.42325 16.5696 7.18301C16.3868 6.92976 16.2497 6.6765 16.0669 6.42325C15.2901 5.35958 14.3306 4.54916 13.1425 4.0933C12.5942 3.8907 12.2286 3.48549 12.0915 2.87768C11.9545 2.26987 12.0458 1.66206 12.5028 1.2062C12.914 0.750342 13.4167 0.598389 14.0107 0.750342C15.1531 1.1049 16.1583 1.76336 17.0722 2.57377C18.1232 3.53614 18.9914 4.70111 19.5854 6.11934C19.5854 6.16999 19.6311 6.22064 19.6311 6.27129C19.6768 6.27129 19.6768 6.27129 19.6311 6.32194Z" fill="#FA72B2"/>
<path d="M5.6955 14.1729C6.06106 14.8313 6.42661 15.3885 6.92925 15.8443C7.61466 16.5028 8.34577 16.9587 9.21396 17.3132C10.1735 17.6678 10.5391 18.934 9.99076 19.8458C9.62521 20.5042 8.8941 20.8081 8.16299 20.5549C6.56369 19.9471 5.23856 18.9847 4.14189 17.6171C3.54787 16.908 3.09093 16.0976 2.72538 15.2365C2.67968 15.1859 2.67968 15.1352 2.63399 15.0339C3.73065 15.1859 4.73592 14.9326 5.6955 14.1729Z" fill="#FA72B2"/>
<path d="M16.6155 14.1729C17.5294 14.9326 18.5347 15.1859 19.7227 14.9833C19.54 15.3378 19.4029 15.6417 19.2658 15.9456C18.0777 18.1236 16.3871 19.6432 14.1937 20.5042C13.3255 20.8588 12.4574 20.4029 12.1832 19.4912C11.909 18.5795 12.3203 17.6171 13.1428 17.2626C14.605 16.7054 15.7016 15.6924 16.5241 14.2235C16.5241 14.2742 16.5698 14.2235 16.6155 14.1729Z" fill="#FA72B2"/>
</svg>
