<svg width="50" height="40" viewBox="0 0 50 40" fill="none" xmlns="http://www.w3.org/2000/svg">
<path d="M46.433 11.7908C46.2308 10.2709 46.2023 7.65297 47.6141 6.77392C47.6393 6.75781 47.6581 6.73453 47.6802 6.71453C48.8344 6.34537 49.6332 5.82728 49.0061 5.13013L31.9801 0L4.41097 3.83298C4.41097 3.83298 1.25397 4.28421 1.53599 9.18903C1.68909 11.8585 2.52635 13.1696 3.25856 13.8148L0.996266 14.4966C0.368356 15.1937 1.16697 15.712 2.32132 16.0805C2.34326 16.1011 2.36176 16.1243 2.38743 16.1404C3.79828 17.0202 3.77113 19.6378 3.56819 21.158C-1.5003 22.5972 0.319114 23.0662 0.319114 23.0662L1.43094 23.3352C0.648886 24.0419 -0.127794 25.3821 0.0176936 27.9237C0.299865 32.8276 2.89298 33.1661 2.89298 33.1661L20.934 39.03L48.1648 32.4343C48.1648 32.4343 49.9849 31.9645 44.915 30.5252C44.7112 29.0073 44.6828 26.39 46.097 25.508C46.1229 25.4923 46.1419 25.4686 46.1629 25.4489C47.3173 25.0798 48.1153 24.5621 47.4881 23.865L46.3045 23.5076C47.0939 23.0316 48.2796 21.7875 48.4654 18.5561C48.5936 16.3333 48.0137 15.0315 47.3425 14.2651L49.6819 13.699C49.6821 13.6999 51.5021 13.2302 46.433 11.7908ZM23.6561 11.728L28.2353 10.7869L43.7104 7.60671L46.016 7.1325C45.2793 8.48083 45.3102 10.3261 45.4321 11.5121C45.4588 11.7804 45.4895 12.0254 45.5194 12.2116L42.9958 12.8391L23.4636 17.6981L23.6561 11.728ZM3.9857 16.5004L6.29097 16.9747L21.1526 20.0298L22.451 20.2957L26.3445 21.0959L26.5366 27.0662L6.46168 22.0717L4.4826 21.5798C4.51169 21.3933 4.54243 21.1486 4.57034 20.8796C4.6915 19.6945 4.72299 17.8488 3.9857 16.5004ZM3.09009 8.95296C3.06219 7.64835 3.29467 6.70484 3.76456 6.22525C4.06359 5.91905 4.41649 5.85534 4.65853 5.85534C4.78641 5.85534 4.87847 5.87309 4.88474 5.87309L16.7635 9.74576L22.69 11.678L22.4956 17.6899L5.86943 13.0286L4.99203 12.7828C4.9598 12.7737 4.91608 12.7674 4.88235 12.7659C4.81386 12.761 3.17007 12.6097 3.09009 8.95296ZM20.977 36.4254L3.47388 31.5182C3.4415 31.5088 3.39823 31.5026 3.36451 31.5009C3.29482 31.4963 1.65029 31.3451 1.57076 27.6893C1.5424 26.383 1.77608 25.4404 2.24507 24.9604C2.54485 24.6542 2.8979 24.5905 3.13949 24.5905C3.26766 24.5905 3.35943 24.6076 3.36615 24.6076C3.36615 24.6076 3.36689 24.6076 3.36615 24.6076L21.1703 30.4134L20.977 36.4254ZM43.9126 30.2467C43.9402 30.5159 43.9709 30.7605 44.0008 30.947L21.9445 36.4339L22.1373 30.4637L26.8528 29.4942L27.5492 29.6627L30.1593 28.8144L42.1909 26.342L44.4974 25.8675C43.7599 27.2157 43.7905 29.0617 43.9126 30.2467ZM45.1275 22.133C45.0874 22.1339 45.0472 22.1393 45.0095 22.1512L43.346 22.6169L27.5068 27.0582L27.3131 21.0464L32.5098 19.3514L45.0929 15.2477C45.0945 15.247 45.7548 15.1003 46.2395 15.5932C46.7086 16.0728 46.9414 17.0163 46.914 18.3209C46.8319 21.9765 45.1874 22.1284 45.1275 22.133Z" fill="white"/>
</svg>
