<svg width="42" height="42" viewBox="0 0 42 42" fill="none" xmlns="http://www.w3.org/2000/svg">
<rect width="41.1015" height="41.0902" rx="20.5451" fill="white"/>
<path d="M20.3573 7.71582C13.3057 7.71582 7.60938 13.1142 7.60938 19.7616C7.60938 23.2124 9.15522 26.3244 11.6116 28.5049L11.3575 33.0141L15.5292 30.8971C17.0327 31.4687 18.6632 31.8074 20.3785 31.8074C27.4301 31.8074 33.1264 26.409 33.1264 19.7616C33.1264 13.1142 27.4089 7.71582 20.3573 7.71582Z" fill="#01A358"/>
<path fill-rule="evenodd" clip-rule="evenodd" d="M26.6857 24.3912C26.4209 25.1284 25.1227 25.8389 24.5405 25.8905C23.9574 25.9431 23.9574 26.3648 20.7262 25.1026C17.4941 23.8394 15.456 20.5511 15.2963 20.3407C15.1376 20.1312 14 18.631 14 17.0791C14 15.5281 14.8202 14.765 15.1118 14.4495C15.4025 14.1339 16.0391 14.0555 16.0391 14.0555C16.0391 14.0555 16.3823 14.0001 16.5678 14.0001C16.7542 14.0001 17.019 13.9761 17.2828 14.6072C17.5477 15.2393 18.1834 16.7912 18.2627 16.948C18.343 17.1058 18.3956 17.2894 18.2895 17.4998C18.1834 17.7111 18.1308 17.843 17.9721 18.0276C17.8125 18.2112 17.6381 18.4372 17.4941 18.5793C17.3373 18.7371 17.1712 18.9078 17.3557 19.2224C17.5421 19.538 18.1797 20.5695 19.1245 21.4064C20.3378 22.4794 21.362 22.8144 21.6803 22.9712C21.9986 23.129 22.1831 23.1031 22.3686 22.8928C22.554 22.6815 23.1639 21.971 23.3761 21.6555C23.5865 21.3409 23.7996 21.3934 24.0912 21.4986C24.3818 21.6029 25.9448 22.3669 26.2632 22.5237C26.5796 22.6815 26.7918 22.7608 26.8721 22.8928C26.9515 23.0229 26.9515 23.6549 26.6857 24.3912Z" fill="white"/>
<path d="M20.3384 38.6667C10.2163 38.6667 2 30.4315 2 20.3333C2 10.2352 10.2374 2 20.3384 2C30.4393 2 38.6768 10.2352 38.6768 20.3333C38.6768 30.4315 30.4605 38.6667 20.3384 38.6667ZM20.3384 2.48691C10.4916 2.48691 2.48704 10.4892 2.48704 20.3333C2.48704 30.1774 10.4916 38.1798 20.3384 38.1798C30.1852 38.1798 38.1897 30.1774 38.1897 20.3333C38.1897 10.4892 30.1852 2.48691 20.3384 2.48691Z" fill="#01A358"/>
</svg>
