<svg width="25" height="26" viewBox="0 0 25 26" fill="none" xmlns="http://www.w3.org/2000/svg">
<path d="M4.93302 6.31362C5.57035 6.31362 6.20484 6.30793 6.84004 6.31505C7.37697 6.32146 7.82631 6.69175 7.9317 7.19735C8.08979 7.9536 7.55072 8.5888 6.73679 8.59165C5.50271 8.59663 4.26863 8.59236 3.03455 8.59307C2.80454 8.59307 2.57453 8.61301 2.34736 8.5475C1.89162 8.41505 1.56191 8.00843 1.53201 7.53916C1.43445 6.01667 1.33546 4.49419 1.23434 2.97171C1.19518 2.38066 1.66802 1.82166 2.25052 1.77893C2.92204 1.73051 3.45469 2.17914 3.50383 2.83926C3.53943 3.32278 3.56934 3.80772 3.60637 4.34892C4.08134 3.88036 4.53638 3.47446 5.02773 3.112C6.84431 1.77253 8.86669 0.937937 11.1162 0.716472C15.3169 0.302739 18.8796 1.65076 21.753 4.73204C23.4941 6.59918 24.5316 8.8359 24.8727 11.3696C25.3576 14.9664 24.4689 18.2086 22.1881 21.0286C20.244 23.4326 17.7125 24.8967 14.6661 25.4422C12.0434 25.9122 9.51898 25.5561 7.12346 24.4082C4.65601 23.2254 2.77178 21.4088 1.47433 18.9934C0.538618 17.2509 0.0750365 15.3823 0.00240173 13.4112C-0.0111283 13.0473 0.0266126 12.7012 0.268729 12.4078C0.564252 12.0496 1.06415 11.9072 1.49711 12.0546C1.97636 12.2184 2.27473 12.6236 2.279 13.1456C2.29253 14.6858 2.60016 16.1628 3.29162 17.54C4.87107 20.6861 7.3905 22.6294 10.8706 23.1984C14.3414 23.7659 17.3493 22.7298 19.831 20.2545C21.4119 18.6779 22.3518 16.7431 22.6317 14.5249C23.0817 10.9615 21.9623 7.93794 19.3311 5.50823C17.6911 3.99358 15.7207 3.14119 13.4918 2.94892C10.1706 2.66195 7.3556 3.75147 5.03628 6.13773C4.99569 6.18046 4.93658 6.21393 4.93302 6.31362Z" fill="#FF9F00"/>
<path d="M13.6408 9.9408C13.6408 10.7483 13.6465 11.5559 13.6365 12.3634C13.6344 12.5642 13.6899 12.7088 13.8352 12.8526C15.1454 14.1522 16.4479 15.461 17.7546 16.7649C18.0743 17.0839 18.263 17.4414 18.1648 17.9093C17.9967 18.7068 17.0852 19.0771 16.4173 18.6142C16.3161 18.5445 16.225 18.4569 16.1374 18.37C14.6933 16.9273 13.2527 15.4817 11.805 14.0425C11.5173 13.7563 11.3748 13.4358 11.377 13.0249C11.3869 11.1613 11.3791 9.29777 11.3841 7.43419C11.3855 6.93215 11.6974 6.52055 12.1603 6.3703C12.6146 6.22218 13.0988 6.36888 13.4022 6.74914C13.5752 6.96562 13.6443 7.21486 13.6429 7.49187C13.6372 8.30794 13.64 9.12401 13.6408 9.9408Z" fill="#FF9F00"/>
</svg>
