<svg width="36" height="36" viewBox="0 0 36 36" fill="none" xmlns="http://www.w3.org/2000/svg">
<ellipse cx="17.8868" cy="18.1574" rx="17.8868" ry="17.5014" fill="white"/>
<path d="M10.957 20.4059V15.906C10.957 11.901 14.202 8.65601 18.207 8.65601C22.212 8.65601 25.4569 11.901 25.4569 15.906V20.4059C25.4569 24.4109 22.212 27.6559 18.207 27.6559" stroke="black" stroke-width="0.761685" stroke-miterlimit="10"/>
<path d="M12.4175 15.9208C12.32 15.9133 12.225 15.9058 12.125 15.9058C9.84749 15.9058 8 17.7532 8 20.0307V20.7807C8 23.0582 9.84749 24.9057 12.125 24.9057C12.2225 24.9057 12.32 24.8982 12.4175 24.8907V15.9208Z" fill="black"/>
<path d="M23.998 15.9208C24.0955 15.9133 24.1906 15.9058 24.2906 15.9058C26.568 15.9058 28.4155 17.7532 28.4155 20.0307V20.7807C28.4155 23.0582 26.568 24.9057 24.2906 24.9057C24.1931 24.9057 24.0955 24.8982 23.998 24.8907V15.9208Z" fill="black"/>
<path d="M20.7072 27.531C20.7072 28.1535 20.2047 28.656 19.5822 28.656H16.8323C16.2098 28.656 15.7073 28.1535 15.7073 27.531C15.7073 26.9085 16.2098 26.406 16.8323 26.406H19.5822C20.2047 26.406 20.7072 26.9085 20.7072 27.531Z" fill="black"/>
</svg>
