<svg width="31" height="31" viewBox="0 0 31 31" fill="none" xmlns="http://www.w3.org/2000/svg">
<path fill-rule="evenodd" clip-rule="evenodd" d="M20.7553 19.4969H22.1555L31 28.3591L28.3591 31L19.4969 22.1555V20.7553L19.0183 20.259C16.9977 21.996 14.3745 23.0417 11.5209 23.0417C5.1578 23.0417 0 17.8839 0 11.5209C0 5.1578 5.1578 0 11.5209 0C17.8839 0 23.0417 5.1578 23.0417 11.5209C23.0417 14.3745 21.996 16.9977 20.259 19.0183L20.7553 19.4969ZM3.54688 11.5209C3.54688 15.9343 7.10948 19.4969 11.5229 19.4969C15.9362 19.4969 19.4988 15.9343 19.4988 11.5209C19.4988 7.10753 15.9362 3.54492 11.5229 3.54492C7.10948 3.54492 3.54688 7.10753 3.54688 11.5209Z" fill="#FF9F00"/>
</svg>
