<svg width="21" height="18" viewBox="0 0 21 18" fill="none" xmlns="http://www.w3.org/2000/svg">
<path d="M17.0468 9.23642C17.1341 5.44545 14.029 2.36528 10.238 2.48999C6.78373 2.60222 3.97791 5.42051 3.87815 8.87478C3.82827 10.446 4.33955 11.9051 5.22494 13.0523C5.31223 13.1646 5.34964 13.3142 5.31223 13.4514C5.31223 13.4763 5.29976 13.5013 5.29976 13.5262C5.26235 13.6634 5.22494 13.8006 5.17506 13.9253C5.08777 14.1497 4.988 14.3617 4.87577 14.5612C4.80095 14.6984 4.71366 14.8356 4.61389 14.9603C4.2772 15.4217 3.86568 15.8083 3.37933 16.1076C3.19228 16.2198 2.75582 16.4567 3.05511 16.6812C3.31698 16.8807 3.79085 16.8308 4.09014 16.8059C4.87577 16.756 5.73622 16.6438 6.52185 16.3819C6.72138 16.3196 6.90843 16.2323 7.09549 16.145C7.46959 15.9704 7.81876 15.7459 8.11805 15.4716C8.24275 15.3593 8.40487 15.3219 8.55451 15.3593C9.1905 15.5464 9.87637 15.6462 10.5872 15.6462C14.0913 15.5963 16.972 12.7406 17.0468 9.23642ZM12.2956 8.92466C12.3455 8.73761 12.4951 8.57549 12.6947 8.52561C13.1062 8.41338 13.4803 8.76255 13.4179 9.17407C13.3805 9.41101 13.181 9.61053 12.9316 9.64794C12.5201 9.69782 12.1834 9.33618 12.2956 8.92466ZM8.00582 9.63547C7.76888 9.59806 7.56936 9.41101 7.51948 9.1616C7.45712 8.75008 7.83123 8.40091 8.24275 8.51314C8.42981 8.56303 8.59192 8.71267 8.6418 8.91219C8.75404 9.33618 8.41734 9.69782 8.00582 9.63547ZM9.91377 8.92466C9.96366 8.73761 10.1133 8.57549 10.3128 8.52561C10.7493 8.41338 11.1359 8.79996 11.0236 9.23642C10.9738 9.42348 10.8241 9.58559 10.6246 9.63547C10.1881 9.7477 9.80154 9.34865 9.91377 8.92466Z" fill="url(#paint0_linear_3388_1527)"/>
<path d="M19.516 5.18389H18.4186C16.9846 2.25336 13.9667 0.220703 10.4751 0.220703C6.98337 0.220703 3.96556 2.24089 2.53147 5.18389H1.4715C0.660926 5.18389 0 5.84481 0 6.65538V10.3466C0 11.1572 0.660926 11.8181 1.4715 11.8181H2.07007H2.63124H3.13005C3.05523 11.6186 2.99287 11.419 2.93052 11.2195C2.731 10.5336 2.63124 9.81037 2.63124 9.06215C2.63124 8.31393 2.731 7.59065 2.93052 6.90479C3.86579 3.61263 6.89608 1.21833 10.4751 1.21833C14.1164 1.21833 17.1841 3.69992 18.0695 7.0669C18.2316 7.70289 18.3314 8.37628 18.3314 9.06215C18.3314 9.74802 18.2441 10.4214 18.0695 11.0574C17.3088 13.938 14.9644 16.1702 12.0214 16.7563C11.9091 16.5693 11.7096 16.4321 11.4727 16.4321H9.86401C9.68943 16.4321 9.52732 16.5069 9.40261 16.6192C9.35273 16.669 9.30285 16.7439 9.27791 16.8062C9.2405 16.881 9.21556 16.9808 9.21556 17.0681C9.21556 17.1429 9.22803 17.2053 9.25297 17.2801C9.34026 17.5295 9.5772 17.7165 9.86401 17.7165H11.4727C11.6473 17.7165 11.8094 17.6417 11.9216 17.5295C12.0089 17.4422 12.0713 17.3424 12.0962 17.2177C15.0018 16.6441 17.3711 14.5616 18.3314 11.8056H18.8925H19.5285C20.3391 11.8056 21 11.1447 21 10.3341V6.64291C20.9875 5.84481 20.3266 5.18389 19.516 5.18389Z" fill="url(#paint1_linear_3388_1527)"/>
<defs>
<linearGradient id="paint0_linear_3388_1527" x1="2.95313" y1="2.48633" x2="16.4955" y2="2.48946" gradientUnits="userSpaceOnUse">
<stop stop-color="#EE4D2C"/>
<stop offset="1" stop-color="#FF9F00"/>
</linearGradient>
<linearGradient id="paint1_linear_3388_1527" x1="0" y1="0.220703" x2="20.176" y2="0.226404" gradientUnits="userSpaceOnUse">
<stop stop-color="#EE4D2C"/>
<stop offset="1" stop-color="#FF9F00"/>
</linearGradient>
</defs>
</svg>
