<svg width="35" height="27" viewBox="0 0 35 27" fill="none" xmlns="http://www.w3.org/2000/svg">
<path d="M34.9964 11.4756C34.8576 11.8661 34.7746 12.2816 34.569 12.644C33.6224 14.3091 32.0861 15.2197 29.9116 15.2494C28.9775 15.2619 28.0435 15.251 27.1095 15.251C26.9851 15.251 26.8625 15.251 26.7687 15.251C26.6172 15.7243 26.5289 16.1866 26.3161 16.6021C26.0781 17.0644 26.0024 17.5127 26.0222 18.0173C26.0619 19.0279 25.6814 19.9432 25.0503 20.8007C24.861 21.0569 24.8556 21.4302 24.8195 21.7551C24.5617 23.9997 22.681 25.6741 20.0737 25.9834C18.3715 26.1865 16.709 26.0022 15.0808 25.5914C13.4021 25.1681 11.7468 24.6776 10.0771 24.2309C9.24765 24.0091 8.40018 23.8919 7.52566 23.9013C5.90825 23.9185 4.29084 23.9075 2.67162 23.906C1.047 23.9044 0.00118425 22.9984 0.00118425 21.5942C-0.000618881 18.0516 -0.000618496 14.5075 0.00298777 10.9649C0.0047909 9.87616 0.751288 9.04362 1.95578 8.79683C2.20642 8.74528 2.47508 8.74684 2.73473 8.74528C4.31789 8.74059 5.90284 8.70779 7.48419 8.75778C8.32264 8.78433 8.96997 8.53753 9.52894 8.04551C11.1337 6.63815 12.6213 5.1527 13.6365 3.35328C13.9809 2.74411 14.3758 2.15524 14.7779 1.57105C15.5532 0.444857 16.6748 -0.0643519 18.2164 0.0949712C19.457 0.223054 20.5966 0.529206 21.5612 1.23054C22.7441 2.08963 23.1805 3.23301 23.1083 4.5279C23.0705 5.20112 22.9172 5.86809 22.8126 6.56474C22.8739 6.56474 22.9947 6.56474 23.1155 6.56474C25.3821 6.56474 27.6504 6.55849 29.917 6.5663C32.3133 6.57411 34.3094 7.94242 34.8846 9.95426C34.9225 10.0855 34.9621 10.2167 35 10.3479C34.9964 10.7259 34.9964 11.1008 34.9964 11.4756ZM23.1823 16.8239C24.4805 15.6649 24.4643 14.4106 23.5627 13.0751C23.7268 13.0751 23.8512 13.0751 23.9756 13.0751C25.9465 13.0751 27.9173 13.0829 29.8881 13.072C31.7003 13.0626 32.9066 11.6381 32.335 10.2011C31.9978 9.35289 30.9808 8.7484 29.8737 8.7484C26.3089 8.74684 22.7423 8.74684 19.1775 8.74684C19.0423 8.74684 18.907 8.74684 18.7682 8.74684C18.7646 8.69529 18.7502 8.66093 18.7628 8.63906C19.0152 8.15953 19.2244 7.65657 19.5327 7.20671C20.0971 6.38354 20.5713 5.5432 20.6038 4.56383C20.6326 3.70629 20.3658 2.9909 19.3885 2.58947C18.8079 2.35048 18.1948 2.26926 17.5673 2.26301C17.4285 2.26145 17.2409 2.37235 17.1544 2.48013C16.8479 2.85813 16.5197 3.23457 16.3033 3.65318C15.1944 5.79155 13.5121 7.57066 11.6783 9.25605C10.8975 9.97457 10.0464 10.6119 8.89063 10.8243C8.45067 10.9055 7.99447 10.9164 7.53287 10.9602C7.53287 14.5387 7.53287 18.1235 7.53287 21.7364C9.43338 21.6458 11.1536 22.205 12.8882 22.7064C13.7284 22.9485 14.5669 23.1984 15.4144 23.4202C16.9633 23.8247 18.5338 24.0684 20.1512 23.7404C21.2277 23.5217 21.9652 22.9688 22.2122 22.0191C22.3186 21.6114 22.3727 21.1725 22.324 20.7601C22.2753 20.3462 22.2807 20.0119 22.7495 19.7948C22.7964 19.7729 22.827 19.723 22.8595 19.6823C23.5916 18.7889 23.743 17.847 23.1823 16.8239ZM3.7535 19.5839C3.06831 19.5824 2.51656 20.0572 2.51475 20.6508C2.51295 21.2475 3.05749 21.7239 3.74269 21.7254C4.42066 21.727 4.98685 21.2428 4.98865 20.6601C4.99226 20.076 4.42788 19.5855 3.7535 19.5839Z" fill="#FF9F00"/>
<path d="M23.1806 16.8242C23.7414 17.8473 23.5918 18.7891 22.8579 19.681C22.8254 19.7217 22.7948 19.7716 22.7479 19.7935C22.2791 20.0106 22.2755 20.3449 22.3224 20.7588C22.371 21.1727 22.3151 21.6101 22.2106 22.0178C21.9635 22.969 21.226 23.5204 20.1496 23.7391C18.534 24.0671 16.9634 23.8234 15.4127 23.4189C14.5653 23.1971 13.7268 22.9487 12.8866 22.7051C11.1519 22.2037 9.42995 21.6445 7.53125 21.7351C7.53125 18.1222 7.53125 14.5374 7.53125 10.9589C7.99285 10.9151 8.44904 10.9027 8.88901 10.823C10.043 10.6106 10.8959 9.97327 11.6767 9.25475C13.5104 7.5678 15.1928 5.79026 16.3017 3.65189C16.5181 3.23484 16.848 2.8584 17.1528 2.47883C17.2393 2.37262 17.4268 2.26172 17.5657 2.26172C18.1932 2.26797 18.8062 2.34919 19.3869 2.58817C20.3641 2.98961 20.6292 3.705 20.6022 4.56253C20.5697 5.5419 20.0955 6.38225 19.5311 7.20542C19.2228 7.65684 19.0118 8.15823 18.7612 8.63776C18.7485 8.66119 18.763 8.694 18.7666 8.74554C18.9054 8.74554 19.0406 8.74554 19.1759 8.74554C22.7407 8.74554 26.3073 8.74398 29.8721 8.7471C30.9792 8.7471 31.9962 9.35159 32.3333 10.1998C32.9049 11.6368 31.6986 13.0613 29.8865 13.0707C27.9157 13.0816 25.9448 13.0738 23.974 13.0738C23.8496 13.0738 23.7252 13.0738 23.5611 13.0738C24.4627 14.4109 24.4789 15.6652 23.1806 16.8242Z" fill="#303435"/>
<path d="M3.75258 19.5859C4.42695 19.5875 4.99133 20.0795 4.98953 20.6606C4.98592 21.2448 4.42154 21.7274 3.74356 21.7259C3.05837 21.7243 2.51383 21.2479 2.51563 20.6512C2.51563 20.0577 3.06739 19.5844 3.75258 19.5859Z" fill="#303435"/>
</svg>
