<svg width="273" height="133" viewBox="0 0 273 133" fill="none" xmlns="http://www.w3.org/2000/svg">
<g filter="url(#filter0_d_2601_5841)">
<g filter="url(#filter1_d_2601_5841)">
<path d="M113.157 62.8078C113.157 87.2989 93.2805 107.156 68.7574 107.156C44.2344 107.156 24.3574 87.2989 24.3574 62.8078C24.3574 38.3168 44.2344 18.46 68.7574 18.46C93.2805 18.46 113.157 38.3168 113.157 62.8078Z" fill="#9C076D" stroke="#FAF305" stroke-width="3"/>
<rect width="57.9065" height="17.7152" rx="8.85759" transform="matrix(0.483209 0.875488 -0.880349 0.474356 52.7188 32.4077)" fill="url(#paint0_linear_2601_5841)"/>
<rect width="57.8901" height="17.7194" rx="8.85972" transform="matrix(0.482823 -0.875734 0.880383 0.474234 17.6797 83.231)" fill="url(#paint1_linear_2601_5841)"/>
<rect width="57.8901" height="17.7194" rx="8.85972" transform="matrix(0.482823 -0.875734 0.880383 0.474234 56.6738 83.1565)" fill="url(#paint2_linear_2601_5841)"/>
<rect width="57.9065" height="17.7152" rx="8.85759" transform="matrix(0.483209 0.875488 -0.880349 0.474356 91.7129 32.3333)" fill="url(#paint3_linear_2601_5841)"/>
<g style="mix-blend-mode:darken">
<rect width="57.9065" height="17.7152" rx="8.85759" transform="matrix(0.483209 0.875488 -0.880349 0.474356 52.7188 32.4077)" fill="url(#paint4_linear_2601_5841)"/>
</g>
<g style="mix-blend-mode:darken">
<rect width="57.8901" height="17.7194" rx="8.85972" transform="matrix(0.482823 -0.875734 0.880383 0.474234 17.6797 83.231)" fill="url(#paint5_linear_2601_5841)"/>
</g>
<g style="mix-blend-mode:darken">
<rect width="57.8901" height="17.7194" rx="8.85972" transform="matrix(0.482823 -0.875734 0.880383 0.474234 56.6738 83.1565)" fill="url(#paint6_linear_2601_5841)"/>
</g>
<g style="mix-blend-mode:darken">
<rect width="57.9065" height="17.7152" rx="8.85759" transform="matrix(0.483209 0.875488 -0.880349 0.474356 91.7129 32.3333)" fill="url(#paint7_linear_2601_5841)"/>
</g>
</g>
</g>
<path d="M145.664 56H148.784V41.84H154.352V39.2H140.096V41.84H145.664V56ZM157.613 41.072C158.741 41.072 159.533 40.256 159.533 39.2C159.533 38.216 158.717 37.472 157.613 37.472C156.509 37.472 155.693 38.264 155.693 39.272C155.693 40.28 156.509 41.072 157.613 41.072ZM156.101 56H159.101V43.184H156.101V56ZM174.87 39.224L172.134 36.416H168.918L172.566 39.224H174.87ZM168.534 40.112L170.622 41.432H173.118L169.878 38.864H167.19L163.95 41.432H166.446L168.534 40.112ZM175.086 49.664C175.086 45.656 172.35 43.04 168.606 43.04C164.79 43.04 161.982 45.776 161.982 49.592C161.982 53.408 164.766 56.168 169.062 56.168C171.27 56.168 173.07 55.448 174.222 54.08L172.614 52.232C171.702 53.168 170.574 53.624 169.134 53.624C166.902 53.624 165.342 52.424 164.982 50.552H175.038C175.062 50.264 175.086 49.904 175.086 49.664ZM168.606 45.44C170.574 45.44 171.99 46.712 172.23 48.56H164.958C165.246 46.688 166.662 45.44 168.606 45.44ZM194.144 43.04C192.104 43.04 190.376 43.856 189.344 45.176C188.456 43.736 186.896 43.04 185.024 43.04C183.272 43.04 181.784 43.664 180.824 44.816V43.184H177.968V56H180.968V49.496C180.968 46.952 182.312 45.656 184.304 45.656C186.128 45.656 187.184 46.76 187.184 49.04V56H190.184V49.496C190.184 46.952 191.552 45.656 193.52 45.656C195.344 45.656 196.4 46.76 196.4 49.04V56H199.4V48.656C199.4 44.792 197.24 43.04 194.144 43.04ZM217.138 43.04C215.266 43.04 213.706 43.664 212.722 44.84V43.184H209.866V56H212.866V49.52C212.866 46.952 214.306 45.656 216.442 45.656C218.362 45.656 219.49 46.76 219.49 49.04V56H222.49V48.656C222.49 44.792 220.21 43.04 217.138 43.04ZM231.456 41.6C233.76 41.6 235.512 40.28 235.608 38.144H233.64C233.592 39.248 232.656 39.944 231.456 39.944C230.256 39.944 229.32 39.248 229.272 38.144H227.304C227.4 40.28 229.152 41.6 231.456 41.6ZM231.192 43.04C229.128 43.04 227.136 43.568 225.768 44.624L226.944 46.808C227.904 46.016 229.392 45.536 230.832 45.536C232.968 45.536 234.024 46.568 234.024 48.32V48.512H230.712C226.824 48.512 225.384 50.192 225.384 52.328C225.384 54.56 227.232 56.168 230.16 56.168C232.08 56.168 233.472 55.544 234.192 54.44V56H237.024V48.488C237.024 44.792 234.888 43.04 231.192 43.04ZM230.784 53.984C229.248 53.984 228.336 53.288 228.336 52.208C228.336 51.272 228.888 50.504 230.928 50.504H234.024V51.992C233.52 53.312 232.248 53.984 230.784 53.984ZM248.146 43.04C246.274 43.04 244.714 43.664 243.73 44.84V43.184H240.874V56H243.874V49.52C243.874 46.952 245.314 45.656 247.45 45.656C249.37 45.656 250.498 46.76 250.498 49.04V56H253.498V48.656C253.498 44.792 251.218 43.04 248.146 43.04ZM267.285 43.184V44.888C266.229 43.616 264.645 43.04 262.845 43.04C259.173 43.04 256.365 45.488 256.365 49.208C256.365 52.928 259.173 55.424 262.845 55.424C264.573 55.424 266.085 54.872 267.141 53.72V54.392C267.141 56.984 265.893 58.28 263.061 58.28C261.285 58.28 259.461 57.68 258.333 56.744L256.989 59C258.453 60.2 260.829 60.824 263.229 60.824C267.717 60.824 270.141 58.712 270.141 54.056V43.184H267.285ZM263.301 52.88C261.021 52.88 259.389 51.392 259.389 49.208C259.389 47.048 261.021 45.584 263.301 45.584C265.557 45.584 267.189 47.048 267.189 49.208C267.189 51.392 265.557 52.88 263.301 52.88Z" fill="black"/>
<path d="M160.64 85L160.616 68.2H158.048L151.496 79.336L144.824 68.2H142.256V85H145.232V74.008L150.752 83.08H152.144L157.664 73.864L157.688 85H160.64ZM169.786 72.04C167.722 72.04 165.73 72.568 164.362 73.624L165.538 75.808C166.498 75.016 167.986 74.536 169.426 74.536C171.562 74.536 172.618 75.568 172.618 77.32V77.512H169.306C165.418 77.512 163.978 79.192 163.978 81.328C163.978 83.56 165.826 85.168 168.754 85.168C170.674 85.168 172.066 84.544 172.786 83.44V85H175.618V77.488C175.618 73.792 173.482 72.04 169.786 72.04ZM169.378 82.984C167.842 82.984 166.93 82.288 166.93 81.208C166.93 80.272 167.482 79.504 169.522 79.504H172.618V80.992C172.114 82.312 170.842 82.984 169.378 82.984ZM183.428 85.168C187.028 85.168 189.236 83.608 189.236 81.208C189.236 76.192 181.316 78.496 181.316 75.904C181.316 75.064 182.18 74.464 184.004 74.464C185.228 74.464 186.452 74.704 187.676 75.424L188.828 73.144C187.676 72.448 185.732 72.04 184.028 72.04C180.572 72.04 178.388 73.624 178.388 76.048C178.388 81.16 186.308 78.856 186.308 81.304C186.308 82.192 185.516 82.72 183.62 82.72C182.012 82.72 180.284 82.192 179.156 81.448L178.004 83.728C179.156 84.544 181.292 85.168 183.428 85.168ZM198.684 82.168C198.228 82.528 197.628 82.696 197.004 82.696C195.852 82.696 195.228 82.024 195.228 80.776V74.68H198.66V72.28H195.228V69.352H192.228V72.28H190.116V74.68H192.228V80.848C192.228 83.68 193.836 85.168 196.644 85.168C197.724 85.168 198.804 84.88 199.524 84.304L198.684 82.168ZM213.618 78.664C213.618 74.656 210.882 72.04 207.138 72.04C203.322 72.04 200.514 74.776 200.514 78.592C200.514 82.408 203.298 85.168 207.594 85.168C209.802 85.168 211.602 84.448 212.754 83.08L211.146 81.232C210.234 82.168 209.106 82.624 207.666 82.624C205.434 82.624 203.874 81.424 203.514 79.552H213.57C213.594 79.264 213.618 78.904 213.618 78.664ZM207.138 74.44C209.106 74.44 210.522 75.712 210.762 77.56H203.49C203.778 75.688 205.194 74.44 207.138 74.44ZM219.355 74.056V72.184H216.499V85H219.499V78.784C219.499 76.168 220.939 74.824 223.219 74.824C223.435 74.824 223.651 74.848 223.915 74.896V72.04C221.779 72.04 220.219 72.712 219.355 74.056Z" fill="#FF9F00"/>
<defs>
<filter id="filter0_d_2601_5841" x="14" y="16.96" width="110" height="99.6958" filterUnits="userSpaceOnUse" color-interpolation-filters="sRGB">
<feFlood flood-opacity="0" result="BackgroundImageFix"/>
<feColorMatrix in="SourceAlpha" type="matrix" values="0 0 0 0 0 0 0 0 0 0 0 0 0 0 0 0 0 0 127 0" result="hardAlpha"/>
<feOffset dy="4"/>
<feGaussianBlur stdDeviation="2"/>
<feComposite in2="hardAlpha" operator="out"/>
<feColorMatrix type="matrix" values="0 0 0 0 0 0 0 0 0 0 0 0 0 0 0 0 0 0 0.25 0"/>
<feBlend mode="normal" in2="BackgroundImageFix" result="effect1_dropShadow_2601_5841"/>
<feBlend mode="normal" in="SourceGraphic" in2="effect1_dropShadow_2601_5841" result="shape"/>
</filter>
<filter id="filter1_d_2601_5841" x="-2" y="0.959961" width="142" height="131.696" filterUnits="userSpaceOnUse" color-interpolation-filters="sRGB">
<feFlood flood-opacity="0" result="BackgroundImageFix"/>
<feColorMatrix in="SourceAlpha" type="matrix" values="0 0 0 0 0 0 0 0 0 0 0 0 0 0 0 0 0 0 127 0" result="hardAlpha"/>
<feOffset dy="4"/>
<feGaussianBlur stdDeviation="10"/>
<feComposite in2="hardAlpha" operator="out"/>
<feColorMatrix type="matrix" values="0 0 0 0 0 0 0 0 0 0 0 0 0 0 0 0 0 0 0.1 0"/>
<feBlend mode="normal" in2="BackgroundImageFix" result="effect1_dropShadow_2601_5841"/>
<feBlend mode="normal" in="SourceGraphic" in2="effect1_dropShadow_2601_5841" result="shape"/>
</filter>
<linearGradient id="paint0_linear_2601_5841" x1="0.132852" y1="7.29159" x2="58.1326" y2="9.30024" gradientUnits="userSpaceOnUse">
<stop stop-color="#E03F37"/>
<stop offset="0.529167" stop-color="#AA7669"/>
<stop offset="1" stop-color="#09A3DE"/>
</linearGradient>
<linearGradient id="paint1_linear_2601_5841" x1="57.8615" y1="6.69065" x2="-1.32387" y2="7.40142" gradientUnits="userSpaceOnUse">
<stop stop-color="#E3423A"/>
<stop offset="0.544792" stop-color="#A77945"/>
<stop offset="1" stop-color="#01A358"/>
</linearGradient>
<linearGradient id="paint2_linear_2601_5841" x1="1.86216" y1="9.63263" x2="57.4403" y2="7.92357" gradientUnits="userSpaceOnUse">
<stop stop-color="#07A1DD"/>
<stop offset="0.534375" stop-color="#AB70B0"/>
<stop offset="1" stop-color="#DD3B94"/>
</linearGradient>
<linearGradient id="paint3_linear_2601_5841" x1="-0.286606" y1="8.87538" x2="58.763" y2="5.63606" gradientUnits="userSpaceOnUse">
<stop stop-color="#DC3C94"/>
<stop offset="1" stop-color="#FDE728"/>
</linearGradient>
<linearGradient id="paint4_linear_2601_5841" x1="0.132852" y1="7.29159" x2="58.1326" y2="9.30024" gradientUnits="userSpaceOnUse">
<stop stop-color="#E03F37"/>
<stop offset="0.529167" stop-color="#AA7669"/>
<stop offset="1" stop-color="#09A3DE"/>
</linearGradient>
<linearGradient id="paint5_linear_2601_5841" x1="57.8615" y1="6.69065" x2="-1.32387" y2="7.40142" gradientUnits="userSpaceOnUse">
<stop stop-color="#E3423A"/>
<stop offset="0.544792" stop-color="#A77945"/>
<stop offset="1" stop-color="#01A358"/>
</linearGradient>
<linearGradient id="paint6_linear_2601_5841" x1="1.86216" y1="9.63263" x2="57.4403" y2="7.92357" gradientUnits="userSpaceOnUse">
<stop stop-color="#07A1DD"/>
<stop offset="0.534375" stop-color="#AB70B0"/>
<stop offset="1" stop-color="#DD3B94"/>
</linearGradient>
<linearGradient id="paint7_linear_2601_5841" x1="-0.286606" y1="8.87538" x2="58.763" y2="5.63606" gradientUnits="userSpaceOnUse">
<stop stop-color="#DC3C94"/>
<stop offset="1" stop-color="#FDE728"/>
</linearGradient>
</defs>
</svg>
