<svg width="92" height="93" viewBox="0 0 92 93" fill="none" xmlns="http://www.w3.org/2000/svg">
<g filter="url(#filter0_d_4135_3604)">
<circle r="40" transform="matrix(1 0 0 -1 46 45.1953)" fill="url(#paint0_linear_4135_3604)"/>
<path d="M61.8657 45.2291C62.0773 36.0389 54.5498 28.5718 45.3595 28.8741C36.9855 29.1462 30.1835 35.9784 29.9417 44.3524C29.8208 48.1615 31.0602 51.6985 33.2066 54.4798C33.4183 54.7519 33.509 55.1147 33.4183 55.4472C33.4183 55.5077 33.388 55.5681 33.388 55.6286C33.2973 55.9611 33.2066 56.2937 33.0857 56.596C32.8741 57.1401 32.6323 57.6541 32.3602 58.1378C32.1788 58.4703 31.9672 58.8028 31.7253 59.1052C30.9091 60.2237 29.9115 61.1609 28.7325 61.8864C28.279 62.1585 27.2209 62.7329 27.9464 63.277C28.5813 63.7607 29.7301 63.6398 30.4556 63.5793C32.3602 63.4584 34.4461 63.1863 36.3507 62.5515C36.8344 62.4003 37.2878 62.1887 37.7413 61.9771C38.6482 61.5539 39.4947 61.0097 40.2203 60.3446C40.5226 60.0725 40.9156 59.9819 41.2783 60.0725C42.8201 60.526 44.4828 60.7679 46.206 60.7679C54.7009 60.6469 61.6843 53.724 61.8657 45.2291ZM50.3477 44.4733C50.4686 44.0199 50.8314 43.6269 51.315 43.5059C52.3127 43.2338 53.2196 44.0803 53.0684 45.0779C52.9778 45.6523 52.4941 46.136 51.8894 46.2267C50.8918 46.3476 50.0756 45.4709 50.3477 44.4733ZM39.9482 46.1965C39.3738 46.1058 38.8901 45.6523 38.7692 45.0477C38.618 44.0501 39.5249 43.2036 40.5226 43.4757C40.976 43.5966 41.369 43.9594 41.49 44.4431C41.762 45.4709 40.9458 46.3476 39.9482 46.1965ZM44.5735 44.4733C44.6944 44.0199 45.0572 43.6269 45.5409 43.5059C46.599 43.2338 47.5362 44.171 47.2641 45.2291C47.1432 45.6826 46.7804 46.0756 46.2967 46.1965C45.2386 46.4686 44.3014 45.5012 44.5735 44.4733Z" fill="white"/>
<path d="M67.8428 35.4031H65.1825C61.7059 28.2988 54.39 23.3711 45.9253 23.3711C37.4606 23.3711 30.1447 28.2685 26.6682 35.4031H24.0985C22.1335 35.4031 20.5312 37.0053 20.5312 38.9703V47.9187C20.5312 49.8837 22.1335 51.486 24.0985 51.486H25.5496H26.91H28.1192C27.9379 51.0023 27.7867 50.5186 27.6355 50.0349C27.1518 48.3722 26.91 46.6188 26.91 44.8049C26.91 42.991 27.1518 41.2376 27.6355 39.5749C29.9029 31.5939 37.249 25.7896 45.9253 25.7896C54.7528 25.7896 62.1896 31.8056 64.336 39.9679C64.729 41.5097 64.9709 43.1422 64.9709 44.8049C64.9709 46.4676 64.7593 48.1001 64.336 49.6419C62.492 56.6252 56.8085 62.0366 49.674 63.4575C49.4019 63.004 48.9182 62.6715 48.3438 62.6715H44.444C44.0208 62.6715 43.6278 62.8528 43.3255 63.1249C43.2045 63.2458 43.0836 63.4272 43.0232 63.5784C42.9325 63.7598 42.872 64.0016 42.872 64.2132C42.872 64.3946 42.9022 64.5458 42.9627 64.7272C43.1743 65.3318 43.7487 65.7853 44.444 65.7853H48.3438C48.767 65.7853 49.1601 65.6039 49.4321 65.3318C49.6438 65.1202 49.7949 64.8783 49.8554 64.576C56.8992 63.1854 62.6431 58.1368 64.9709 51.4557H66.3313H67.8731C69.8381 51.4557 71.4403 49.8535 71.4403 47.8885V38.9401C71.4101 37.0053 69.8079 35.4031 67.8428 35.4031Z" fill="white"/>
</g>
<defs>
<filter id="filter0_d_4135_3604" x="0" y="0.195312" width="92" height="92" filterUnits="userSpaceOnUse" color-interpolation-filters="sRGB">
<feFlood flood-opacity="0" result="BackgroundImageFix"/>
<feColorMatrix in="SourceAlpha" type="matrix" values="0 0 0 0 0 0 0 0 0 0 0 0 0 0 0 0 0 0 127 0" result="hardAlpha"/>
<feOffset dy="1"/>
<feGaussianBlur stdDeviation="3"/>
<feComposite in2="hardAlpha" operator="out"/>
<feColorMatrix type="matrix" values="0 0 0 0 0 0 0 0 0 0 0 0 0 0 0 0 0 0 0.25 0"/>
<feBlend mode="normal" in2="BackgroundImageFix" result="effect1_dropShadow_4135_3604"/>
<feBlend mode="normal" in="SourceGraphic" in2="effect1_dropShadow_4135_3604" result="shape"/>
</filter>
<linearGradient id="paint0_linear_4135_3604" x1="0" y1="0" x2="76.8609" y2="0.0180948" gradientUnits="userSpaceOnUse">
<stop stop-color="#68DBFF"/>
<stop offset="1" stop-color="#2A99FF"/>
</linearGradient>
</defs>
</svg>
