<svg width="42" height="42" viewBox="0 0 42 42" fill="none" xmlns="http://www.w3.org/2000/svg">
<rect width="41.1015" height="41.0902" rx="20.5451" fill="white"/>
<path d="M20.3573 7.71582C13.3057 7.71582 7.60938 13.1142 7.60938 19.7616C7.60938 23.2124 9.15522 26.3244 11.6116 28.5049L11.3575 33.0141L15.5292 30.8971C17.0327 31.4687 18.6632 31.8074 20.3785 31.8074C27.4301 31.8074 33.1264 26.409 33.1264 19.7616C33.1264 13.1142 27.4089 7.71582 20.3573 7.71582Z" fill="#1480C3"/>
<path d="M20.3384 38.6667C10.2163 38.6667 2 30.4315 2 20.3333C2 10.2352 10.2374 2 20.3384 2C30.4393 2 38.6768 10.2352 38.6768 20.3333C38.6768 30.4315 30.4605 38.6667 20.3384 38.6667ZM20.3384 2.48691C10.4916 2.48691 2.48704 10.4892 2.48704 20.3333C2.48704 30.1774 10.4916 38.1798 20.3384 38.1798C30.1852 38.1798 38.1897 30.1774 38.1897 20.3333C38.1897 10.4892 30.1852 2.48691 20.3384 2.48691Z" fill="#1480C3"/>
<path d="M11.3177 17.5607C11.2118 17.5607 11.1059 17.5395 11 17.5183C10.6824 17.4336 10.4706 17.1584 10.4706 16.8409C10.4706 16.5445 10.6824 16.2693 11 16.1846C11.2118 16.1211 11.4447 16.1211 11.6565 16.1211C12.7576 16.1211 13.88 16.1211 14.9811 16.1211C15.2141 16.1211 15.4258 16.1423 15.6376 16.2058C16.0823 16.354 16.2517 16.7774 16.0823 17.2008C15.9552 17.4972 15.7646 17.7724 15.574 18.0264C14.6 19.2543 13.647 20.4821 12.6729 21.71C12.6518 21.7312 12.6306 21.7523 12.6094 21.7947C12.8635 21.7947 13.0965 21.7947 13.3506 21.7947C14.0494 21.7947 14.7694 21.7947 15.4682 21.7947C15.6376 21.7947 15.807 21.8159 15.9552 21.9005C16.1034 21.9852 16.2305 22.0911 16.2729 22.2604C16.3787 22.6203 16.294 23.0014 15.9764 23.1919C15.807 23.2766 15.6376 23.3189 15.4682 23.3189C14.5364 23.3189 13.6259 23.3189 12.6941 23.3189C12.2706 23.3189 11.8259 23.3189 11.4024 23.3189C11.233 23.3189 11.0636 23.2978 10.9153 23.2343C10.4495 23.0649 10.2377 22.5356 10.4495 22.0699C10.5553 21.837 10.7248 21.6465 10.873 21.456C11.6141 20.5033 12.3553 19.5718 13.0965 18.6192C13.3294 18.3228 13.5623 18.0264 13.7953 17.73C13.88 17.6242 13.88 17.6242 13.7529 17.5818C13.7317 17.5607 13.6894 17.5607 13.647 17.5607C12.8847 17.5607 12.1435 17.5607 11.3812 17.5607C11.3812 17.5607 11.36 17.5395 11.3177 17.5607Z" fill="white"/>
<path d="M21.8212 20.6304C21.8212 21.2867 21.8212 21.943 21.8212 22.5993C21.8212 22.9168 21.6306 23.192 21.3341 23.319C20.9953 23.4461 20.6565 23.4037 20.4236 23.1497C20.3812 23.1073 20.36 23.065 20.3177 23.0227C20.233 22.938 20.1906 22.938 20.0847 23.0015C19.9577 23.0862 19.8306 23.192 19.6824 23.2767C19.2165 23.5307 18.7507 23.5519 18.2424 23.4461C17.7554 23.3402 17.3319 23.1073 16.9719 22.7475C16.6542 22.4299 16.4637 22.0277 16.3578 21.6043C16.2307 21.1597 16.1884 20.7151 16.2307 20.2494C16.3154 19.3179 16.7601 18.6193 17.5436 18.1324C17.9248 17.8995 18.3483 17.7301 18.8142 17.7513C19.3012 17.7725 19.7459 17.963 20.1059 18.2594C20.1695 18.3229 20.2118 18.3229 20.2542 18.2382C20.4871 17.9418 20.7836 17.8148 21.1647 17.8783C21.5247 17.9418 21.7788 18.2594 21.8 18.6193C21.8424 19.2967 21.8424 19.9742 21.8212 20.6304ZM19.0048 21.9642C19.4495 21.943 19.7671 21.7736 19.9789 21.3926C20.2542 20.8845 20.2542 20.3552 19.9789 19.8471C19.7883 19.4872 19.4706 19.2967 19.0471 19.2755C18.6236 19.2755 18.2848 19.4449 18.0942 19.826C17.8401 20.2917 17.7977 20.7998 18.0307 21.3079C18.2213 21.7313 18.5601 21.943 19.0048 21.9642Z" fill="white"/>
<path d="M30.3547 20.5876C30.3547 21.2227 30.2277 21.7943 29.8888 22.3236C29.4653 22.9375 28.8724 23.3186 28.1524 23.4456C27.4112 23.5938 26.6913 23.5091 26.056 23.1069C25.2725 22.6411 24.8701 21.9213 24.7854 21.011C24.7431 20.4394 24.8066 19.8678 25.0395 19.3386C25.4631 18.4494 26.1619 17.9202 27.136 17.7932C27.8136 17.7085 28.4489 17.8143 29.0418 18.1531C29.783 18.5976 30.1853 19.2539 30.3124 20.1007C30.3124 20.143 30.3335 20.1854 30.3335 20.2277C30.3547 20.3759 30.3547 20.5029 30.3547 20.5876ZM27.7077 19.2962C27.136 19.2962 26.7971 19.4656 26.6066 19.8467C26.3101 20.3971 26.3101 20.9475 26.6489 21.4768C27.0936 22.1754 28.1312 22.1119 28.5124 21.3921C28.7665 20.9052 28.7665 20.3971 28.5336 19.9102C28.343 19.5079 28.0253 19.2962 27.7077 19.2962Z" fill="white"/>
<path d="M22.5407 19.444C22.5407 18.6607 22.5407 17.8986 22.5407 17.1153C22.5407 16.8613 22.5195 16.586 22.5407 16.332C22.5618 15.9298 22.7948 15.6546 23.1548 15.5699C23.5359 15.4852 23.8747 15.6122 24.0442 15.8874C24.15 16.0568 24.1924 16.2473 24.1924 16.4379C24.1924 17.8139 24.1924 19.19 24.1924 20.566C24.1924 21.2223 24.1924 21.8786 24.1924 22.5349C24.1924 22.8947 23.9806 23.2335 23.663 23.3393C23.0489 23.5722 22.5618 23.17 22.5407 22.5772C22.5195 22.1961 22.5407 21.8362 22.5407 21.4552C22.5407 21.0106 22.5407 20.5872 22.5407 20.1426C22.5407 19.9098 22.5407 19.6769 22.5407 19.444Z" fill="white"/>
</svg>
