<svg width="15" height="14" viewBox="0 0 15 14" fill="none" xmlns="http://www.w3.org/2000/svg">
<g clip-path="url(#clip0_2173_19011)">
<path d="M11.7749 4.08851C11.2535 1.72321 8.77628 0.200322 6.24203 0.687035C4.07199 1.10382 2.51148 2.88241 2.50152 4.95016C2.50152 5.04868 2.50588 5.14955 2.51525 5.25623C0.971461 5.40875 -0.147566 6.70044 0.0158461 8.14131C0.167312 9.47684 1.37491 10.49 2.81382 10.4887H3.14176C3.13427 10.3919 3.12615 10.2957 3.12615 10.1972C3.12615 8.10428 4.94395 6.40765 7.18634 6.40765C9.42873 6.40765 11.2465 8.10428 11.2465 10.1972C11.2465 10.2957 11.2384 10.3919 11.2309 10.4887H11.5588C13.4541 10.4935 14.9948 9.06339 15 7.29442C15.0049 5.59704 13.5903 4.19077 11.7749 4.08851Z" fill="#FE7D43"/>
<path d="M7.18552 13.4037C9.08291 13.4037 10.621 11.9681 10.621 10.1972C10.621 8.42632 9.08291 6.99072 7.18552 6.99072C5.28814 6.99072 3.75 8.42632 3.75 10.1972C3.75 11.9681 5.28814 13.4037 7.18552 13.4037Z" fill="#FF9F00"/>
<path d="M7.18733 12.2375C7.01484 12.2375 6.875 12.107 6.875 11.946V8.448C6.875 8.28701 7.01484 8.15649 7.18733 8.15649C7.35982 8.15649 7.49966 8.28701 7.49966 8.448V11.946C7.49963 12.107 7.35982 12.2375 7.18733 12.2375Z" fill="#FAFAFA"/>
<path d="M7.187 12.2376C7.10411 12.2377 7.02455 12.2071 6.96588 12.1525L5.71658 10.9865C5.59674 10.8707 5.60019 10.6861 5.72425 10.5743C5.8453 10.4652 6.03717 10.4652 6.15821 10.5743L7.187 11.5339L8.21517 10.5743C8.33923 10.4624 8.53696 10.4656 8.6568 10.5814C8.77372 10.6944 8.77372 10.8735 8.6568 10.9865L7.40751 12.1525C7.34895 12.207 7.26966 12.2376 7.187 12.2376Z" fill="#FAFAFA"/>
</g>
<defs>
<clipPath id="clip0_2173_19011">
<rect width="15" height="14" fill="white"/>
</clipPath>
</defs>
</svg>
