<svg width="23" height="18" viewBox="0 0 23 18" fill="none" xmlns="http://www.w3.org/2000/svg">
<path d="M22.9543 9.13188C22.0526 6.79935 20.4871 4.78217 18.4514 3.32965C16.4157 1.87714 13.999 1.05296 11.5 0.958984C9.00099 1.05296 6.58429 1.87714 4.54859 3.32965C2.51289 4.78217 0.947424 6.79935 0.0456751 9.13188C-0.015225 9.30033 -0.015225 9.48478 0.0456751 9.65323C0.947424 11.9858 2.51289 14.0029 4.54859 15.4555C6.58429 16.908 9.00099 17.7322 11.5 17.8261C13.999 17.7322 16.4157 16.908 18.4514 15.4555C20.4871 14.0029 22.0526 11.9858 22.9543 9.65323C23.0152 9.48478 23.0152 9.30033 22.9543 9.13188ZM11.5 14.376C10.5144 14.376 9.55086 14.0838 8.73133 13.5362C7.9118 12.9886 7.27306 12.2103 6.89587 11.2997C6.51868 10.389 6.41999 9.38703 6.61228 8.42033C6.80457 7.45363 7.2792 6.56566 7.97615 5.86871C8.6731 5.17176 9.56107 4.69713 10.5278 4.50484C11.4945 4.31255 12.4965 4.41124 13.4071 4.78843C14.3177 5.16561 15.096 5.80436 15.6436 6.62389C16.1912 7.44342 16.4835 8.40692 16.4835 9.39256C16.4814 10.7136 15.9558 11.98 15.0216 12.9142C14.0875 13.8483 12.8211 14.374 11.5 14.376Z" fill="#FF9F00"/>
</svg>
