<svg width="20" height="20" viewBox="0 0 20 20" fill="none" xmlns="http://www.w3.org/2000/svg">
<path d="M2.15002 6.45215C0.963109 6.45372 0.00157467 7.41545 0 8.60217V17.2018C0 18.3893 0.962518 19.3519 2.15002 19.3519C3.33732 19.3519 4.29984 18.3893 4.29984 17.2018V8.60217C4.29846 7.41545 3.33673 6.45372 2.15002 6.45215Z" fill="#FF9F00"/>
<path d="M19.376 7.41356C18.8662 6.80219 18.1111 6.44907 17.3152 6.44986H14.151C14.637 4.45947 14.3967 2.45747 13.4899 1.19892C12.9978 0.460985 12.174 0.0127942 11.2873 0C10.0329 0 10.0329 1.16211 10.0329 2.01027C10.0329 3.68257 9.67484 6.44986 5.78225 7.54052C5.54447 7.60291 5.37756 7.81648 5.375 8.06232V16.6653C5.37677 18.1471 6.57746 19.3478 8.05923 19.3496H15.9462C17.2433 19.3496 18.3546 18.4219 18.5865 17.1458L19.9565 9.61377C20.0994 8.83057 19.8868 8.02433 19.376 7.41356V7.41356Z" fill="#FF9F00"/>
</svg>
