<svg width="20" height="19" viewBox="0 0 20 19" fill="none" xmlns="http://www.w3.org/2000/svg">
<path d="M3.74393 18.5349C3.74393 18.1978 3.74393 17.8607 3.74393 17.5236C4.16442 17.5236 4.50081 17.5236 4.9213 17.5236C4.9213 17.3364 4.9213 17.1866 4.9213 17.0367C4.96335 16.2127 5.50999 15.6135 6.43506 15.4637C6.56121 15.4637 6.68736 15.4637 6.8135 15.4637C7.52833 15.4637 8.24317 15.4637 9.00005 15.4637C9.00005 15.3887 9.00005 15.3138 9.00005 15.2764C9.00005 11.9055 9.00005 8.53459 9.00005 5.1637C9.00005 5.05134 8.958 4.97643 8.83185 4.90152C8.28521 4.67679 7.99087 4.26479 7.86473 3.74043C7.86473 3.70298 7.78063 3.62807 7.73858 3.59062C6.64531 3.32843 5.50999 3.06625 4.41671 2.80407C4.37466 2.80407 4.37466 2.80407 4.33262 2.80407C4.33262 3.51571 4.33262 4.22734 4.33262 4.93897C4.58491 4.90152 4.8372 4.82661 5.13155 4.82661C5.97252 4.78916 6.7294 5.20115 7.0658 5.87533C7.40219 6.54951 7.27604 7.33605 6.68735 7.86042C5.72023 8.72187 4.7531 9.58332 3.74393 10.4448C3.74393 10.4448 3.70188 10.4073 3.65983 10.4073C2.73476 9.58332 1.76763 8.75932 0.842555 7.89787C-0.166619 6.96151 0.127723 5.46334 1.43124 4.93897C1.93583 4.7517 2.39836 4.71425 2.90295 4.86406C2.945 4.86406 3.0291 4.90152 3.07115 4.90152C3.07115 4.86406 3.07115 4.82661 3.07115 4.82661C3.07115 4.07752 3.07115 3.32843 3.07115 2.57935C3.07115 2.46698 2.98705 2.46698 2.90295 2.42953C2.44041 2.31717 1.93583 2.2048 1.43124 2.09244C1.51534 1.75535 1.64148 1.41826 1.72558 1.08117C2.23017 1.19353 2.77681 1.3059 3.28139 1.45572C4.8372 1.83026 6.35096 2.2048 7.90677 2.54189C8.03292 2.57935 8.07497 2.54189 8.15907 2.46698C8.36931 2.31717 8.57956 2.16735 8.7898 2.01753C8.8739 1.98008 8.91595 1.94262 8.91595 1.83026C8.91595 1.49317 8.91595 1.19353 8.91595 0.856445C9.29439 0.856445 9.67283 0.856445 10.0933 0.856445C10.0933 1.15608 10.0933 1.49317 10.0933 1.79281C10.0933 1.90517 10.1354 1.98008 10.2615 2.05499C10.8081 2.27971 11.1445 2.65426 11.2286 3.17862C11.2707 3.29098 11.3127 3.32843 11.4389 3.36589C13.4152 3.8528 15.3915 4.30225 17.4098 4.78916C17.4519 4.78916 17.536 4.82661 17.578 4.82661C17.4939 5.1637 17.3678 5.46333 17.2837 5.80042C16.8632 5.68806 16.4427 5.61315 15.9802 5.50079C15.9802 5.68806 15.9802 5.91279 15.9802 6.10006C15.9802 6.39969 15.9802 6.69933 15.9802 6.99896C15.9802 7.03642 16.0222 7.14878 16.0643 7.14878C16.9893 7.48587 17.4098 8.1226 17.4098 8.98405C17.4098 9.0215 17.4098 9.0215 17.4098 9.05896V9.09641C18.0826 9.09641 18.7133 9.09641 19.3861 9.09641C19.6384 10.2575 18.8395 11.1189 17.7462 11.1564C16.1484 11.1939 14.5505 11.1939 12.9106 11.1564C12.0696 11.1564 11.3127 10.5197 11.2707 9.73313C11.2707 9.50841 11.2707 9.32114 11.2707 9.09641C11.9435 9.09641 12.6163 9.09641 13.289 9.09641C13.289 8.90914 13.289 8.72187 13.3311 8.57205C13.4572 7.89787 13.8777 7.44842 14.5926 7.18624C14.7187 7.14878 14.7607 7.07387 14.7607 6.96151C14.7607 6.43715 14.7607 5.87533 14.7607 5.35097C14.7607 5.23861 14.7187 5.20115 14.5926 5.1637C13.4152 4.90152 12.2378 4.60188 11.0604 4.3397C10.9763 4.3397 10.8922 4.3397 10.8502 4.41461C10.64 4.56443 10.4297 4.71425 10.1774 4.86406C10.1354 4.90152 10.0513 4.97643 10.0513 5.01388C10.0513 5.23861 10.0513 5.46334 10.0513 5.68806C10.0513 8.83423 10.0513 11.9804 10.0513 15.1266C10.0513 15.2015 10.0513 15.2764 10.0513 15.3887C10.1354 15.3887 10.2195 15.3887 10.2615 15.3887C10.9343 15.3887 11.6071 15.3887 12.2799 15.3887C13.3311 15.3887 14.0459 16.0255 14.088 16.9244C14.088 17.0742 14.088 17.2615 14.088 17.4487C14.4664 17.4487 14.8448 17.4487 15.2653 17.4487C15.2653 17.8233 15.2653 18.1604 15.2653 18.4975C11.523 18.5349 7.65448 18.5349 3.74393 18.5349ZM16.3166 9.13387C16.3586 8.72187 16.2745 8.38478 15.854 8.19751C15.5176 8.04769 15.2233 8.08514 14.9289 8.27241C14.5926 8.49714 14.5505 8.79678 14.5926 9.13387C15.1392 9.13387 15.7279 9.13387 16.3166 9.13387Z" fill="#F7C571"/>
<path d="M19.4709 11.7168C19.4709 12.5782 19.4709 13.4397 19.4709 14.3012C16.7798 14.3012 14.0886 14.3012 11.3555 14.3012C11.3555 13.4397 11.3555 12.6157 11.3555 11.7543C11.4816 11.8292 11.6078 11.9041 11.7339 11.9415C12.1544 12.1288 12.6169 12.2412 13.1215 12.2412C14.6353 12.2412 16.149 12.2412 17.7049 12.2412C18.3776 12.2412 18.9243 12.0913 19.4709 11.7168Z" fill="#F7C571"/>
<path d="M16.3156 9.13427C15.7269 9.13427 15.1803 9.13427 14.5916 9.13427C14.5495 8.79718 14.5916 8.49755 14.928 8.27282C15.2223 8.08555 15.5167 8.0481 15.853 8.19791C16.2315 8.38518 16.3576 8.72227 16.3156 9.13427Z" fill="#F7C571"/>
</svg>
