<svg width="23" height="23" viewBox="0 0 23 23" fill="none" xmlns="http://www.w3.org/2000/svg">
<path d="M19.6318 3.36824C17.4597 1.19622 14.5718 0 11.5 0C8.42824 0 5.54035 1.19622 3.36824 3.36824C1.19622 5.54035 0 8.42824 0 11.5C0 14.5718 1.19622 17.4597 3.36824 19.6318C5.54035 21.8038 8.42824 23 11.5 23C14.5718 23 17.4597 21.8038 19.6318 19.6318C21.8038 17.4597 23 14.5718 23 11.5C23 8.42824 21.8038 5.54035 19.6318 3.36824ZM5.39062 12.5781C5.39062 13.1736 4.90794 13.6562 4.3125 13.6562C3.71706 13.6562 3.23438 13.1736 3.23438 12.5781V10.4219C3.23438 9.82644 3.71706 9.34375 4.3125 9.34375C4.90794 9.34375 5.39062 9.82644 5.39062 10.4219V12.5781ZM8.98438 14.375C8.98438 14.9704 8.50169 15.4531 7.90625 15.4531C7.31081 15.4531 6.82812 14.9704 6.82812 14.375V8.625C6.82812 8.02956 7.31081 7.54688 7.90625 7.54688C8.50169 7.54688 8.98438 8.02956 8.98438 8.625V14.375ZM12.5781 16.5312C12.5781 17.1267 12.0954 17.6094 11.5 17.6094C10.9046 17.6094 10.4219 17.1267 10.4219 16.5312V6.46875C10.4219 5.87331 10.9046 5.39062 11.5 5.39062C12.0954 5.39062 12.5781 5.87331 12.5781 6.46875V16.5312ZM16.1719 14.375C16.1719 14.9704 15.6892 15.4531 15.0938 15.4531C14.4983 15.4531 14.0156 14.9704 14.0156 14.375V8.625C14.0156 8.02956 14.4983 7.54688 15.0938 7.54688C15.6892 7.54688 16.1719 8.02956 16.1719 8.625V14.375ZM18.6875 13.6562C18.0921 13.6562 17.6094 13.1736 17.6094 12.5781V10.4219C17.6094 9.82644 18.0921 9.34375 18.6875 9.34375C19.2829 9.34375 19.7656 9.82644 19.7656 10.4219V12.5781C19.7656 13.1736 19.2829 13.6562 18.6875 13.6562Z" fill="#FF9F00"/>
</svg>
