<svg width="25" height="19" viewBox="0 0 25 19" fill="none" xmlns="http://www.w3.org/2000/svg">
<path d="M24.7941 11.3721C24.6064 11.7482 24.278 11.8318 23.8557 11.8318C20.9466 11.8318 18.0376 11.8318 15.1285 11.8318C15.0347 11.8318 14.9409 11.8318 14.847 11.8318C14.847 11.9572 14.847 12.0408 14.847 12.1244C14.847 13.0438 14.847 14.0051 14.847 14.9245C14.847 16.0529 15.7854 16.8888 17.0523 16.8888C17.4745 16.8888 17.8968 16.8888 18.3191 16.8888C18.7883 16.8888 19.1167 17.1396 19.0698 17.5157C19.0698 17.8918 18.7414 18.1426 18.3191 18.1426C14.5655 18.1426 10.8119 18.1426 7.05828 18.1426C6.63599 18.1426 6.30755 17.8501 6.30755 17.5157C6.30755 17.1396 6.63599 16.8888 7.05828 16.8888C7.62132 16.8888 8.23128 16.9306 8.79432 16.847C9.73272 16.7216 10.4834 16.0111 10.5304 15.1335C10.5773 14.0469 10.5304 12.9602 10.5304 11.8318C10.4365 11.8318 10.3427 11.8318 10.2488 11.8318C7.29288 11.8318 4.38383 11.8318 1.42786 11.8318C1.33402 11.8318 1.24018 11.8318 1.09942 11.8318C0.770984 11.7482 0.489465 11.4975 0.536385 11.1631C0.583305 10.8288 0.864825 10.578 1.24019 10.578C1.33403 10.578 1.38095 10.578 1.47479 10.578C4.38383 10.578 7.3398 10.578 10.2488 10.578C10.3427 10.578 10.4365 10.578 10.5773 10.578C10.5773 10.3691 10.5773 10.1601 10.5773 9.99291C10.5773 9.57498 10.8588 9.32422 11.328 9.32422C12.2664 9.32422 13.1579 9.32422 14.0963 9.32422C14.5655 9.32422 14.847 9.57498 14.847 9.99291C14.847 10.2019 14.847 10.3691 14.847 10.578C14.9409 10.578 15.0347 10.578 15.1285 10.578C18.0376 10.578 20.9466 10.578 23.8557 10.578C24.278 10.578 24.6064 10.6616 24.7941 11.0377C24.7941 11.1631 24.7941 11.2467 24.7941 11.3721Z" fill="#2896FF"/>
<path d="M24.7942 5.31304C24.7472 5.5638 24.7003 5.81456 24.6065 6.06532C23.9965 8.0714 21.932 9.36699 19.586 9.3252C17.3808 9.28341 15.4101 7.82064 14.9409 5.85636C14.2841 3.34876 16.3016 0.841158 19.2107 0.506812C21.979 0.214259 24.3719 1.88599 24.7942 4.3518C24.7942 4.39359 24.8411 4.43538 24.8411 4.47717C24.7942 4.72793 24.7942 5.02049 24.7942 5.31304ZM19.6329 5.18766C19.4922 5.02049 19.3514 4.89511 19.2107 4.76973C19.0699 4.64435 18.9291 4.51897 18.7884 4.39359C18.5069 4.14283 18.0846 4.14283 17.8031 4.39359C17.5215 4.64435 17.5215 5.02049 17.8031 5.27125C18.2723 5.68918 18.7415 6.10711 19.2107 6.52505C19.5391 6.8176 20.0083 6.77581 20.2898 6.44146C20.4306 6.27429 20.5244 6.10711 20.6652 5.98174C21.1344 5.39663 21.5567 4.85331 22.0259 4.26821C22.2136 4.01745 22.2135 3.7249 22.0728 3.51593C21.8851 3.30696 21.6036 3.18158 21.3221 3.26517C21.1344 3.30696 20.9936 3.43234 20.8529 3.55772C20.4775 4.14283 20.1021 4.64435 19.6329 5.18766Z" fill="#2896FF"/>
<path d="M10.533 4.89396C10.533 7.31797 8.3278 9.32405 5.55951 9.32405C2.79123 9.32405 0.539062 7.31797 0.539062 4.89396C0.539062 2.46995 2.79123 0.463867 5.55951 0.463867C8.3278 0.463867 10.533 2.42815 10.533 4.89396ZM4.57419 4.89396C4.38651 5.06113 4.24575 5.14472 4.10499 5.31189C3.77655 5.60444 3.77655 5.98058 4.05807 6.23134C4.33959 6.4821 4.80879 6.4821 5.09031 6.18955C5.23107 6.06417 5.37183 5.897 5.51259 5.72982C5.70027 5.93879 5.84103 6.06417 5.98179 6.18955C6.31023 6.4821 6.73251 6.4821 7.01403 6.23134C7.29555 5.98058 7.29556 5.60444 6.96711 5.31189C6.82635 5.18651 6.68559 5.06113 6.49791 4.89396C6.68559 4.72678 6.82635 4.6432 6.96711 4.47602C7.29556 4.18347 7.29555 3.80733 7.01403 3.55657C6.73251 3.30581 6.31023 3.30581 5.98179 3.59837C5.84103 3.72375 5.70027 3.84913 5.51259 4.0163C5.32491 3.84913 5.18415 3.72375 5.04339 3.59837C4.71495 3.34761 4.29267 3.30581 4.01115 3.59837C3.72963 3.84913 3.72963 4.22527 4.05807 4.51782C4.24575 4.60141 4.38651 4.72678 4.57419 4.89396Z" fill="#2896FF"/>
</svg>
