<svg width="21" height="20" viewBox="0 0 21 20" fill="none" xmlns="http://www.w3.org/2000/svg">
<path d="M0.53125 9.68491C0.574445 9.533 0.574443 9.38109 0.617638 9.22918C0.963196 7.71007 2.25904 6.79861 3.55488 7.05179C4.80753 7.30497 5.75781 8.72281 5.67142 10.2419C5.58503 11.761 4.50517 12.9763 3.25252 13.0269C1.95668 13.1282 0.790421 12.0648 0.574447 10.5457C0.574447 10.4951 0.53125 10.3938 0.53125 10.3432C0.53125 10.1406 0.53125 9.93809 0.53125 9.68491Z" fill="#FA72B2"/>
<path d="M10.5543 6.88275C11.2886 6.17384 12.0661 5.97129 12.93 6.37639C14.3122 7.03467 14.701 9.11078 13.7507 10.4273C13.7075 10.478 13.6643 10.5286 13.6211 10.6299C12.7572 11.6426 11.8933 12.6554 11.0294 13.6681C10.7271 14.0226 10.3815 14.0226 10.1223 13.6681C9.25846 12.6554 8.39456 11.6426 7.53067 10.6299C6.36441 9.21205 6.79636 6.93339 8.35137 6.32575C9.08568 6.02193 9.77679 6.17384 10.3815 6.73084C10.4679 6.78148 10.5111 6.83212 10.5543 6.88275Z" fill="#FA72B2"/>
<path d="M15.3906 10.0284C15.3906 8.35743 16.5569 6.99023 17.9823 6.99023C19.4077 6.99023 20.5308 8.35743 20.5308 10.0284C20.5308 11.6995 19.3645 13.0667 17.9391 13.0667C16.5569 13.0667 15.3906 11.6995 15.3906 10.0284Z" fill="#FA72B2"/>
<path d="M5.41381 6.53789C4.54991 5.77834 3.59963 5.52515 2.47656 5.67706C2.56295 5.52515 2.60614 5.37324 2.64934 5.22133C3.7724 2.74012 5.457 1.01847 7.70313 0.107005C8.56702 -0.247453 9.43092 0.309553 9.64689 1.32229C9.81967 2.18312 9.43091 3.04394 8.7398 3.34776C7.9191 3.70222 7.14159 4.15796 6.53686 4.91751C6.19131 5.3226 5.88894 5.82897 5.58658 6.28471C5.457 6.38598 5.457 6.43662 5.41381 6.53789Z" fill="#FA72B2"/>
<path d="M18.5847 5.68562C17.548 5.48307 16.5545 5.78689 15.6906 6.54644C15.5179 6.29326 15.3883 6.04008 15.2155 5.78689C14.4812 4.72352 13.5741 3.91333 12.451 3.45759C11.9327 3.25505 11.5871 2.84995 11.4576 2.24231C11.328 1.63467 11.4144 1.02702 11.8463 0.571292C12.2351 0.11556 12.7102 -0.0363504 13.2717 0.11556C14.3516 0.470018 15.3019 1.1283 16.1658 1.93849C17.1593 2.90059 17.98 4.06524 18.5415 5.48307C18.5415 5.53371 18.5847 5.58434 18.5847 5.63498C18.6279 5.63498 18.6279 5.63498 18.5847 5.68562Z" fill="#FA72B2"/>
<path d="M5.41358 13.5312C5.75913 14.1895 6.10469 14.7465 6.57983 15.2023C7.22775 15.8605 7.91887 16.3163 8.73957 16.6707C9.64666 17.0252 9.99221 18.2911 9.47388 19.2026C9.12832 19.8609 8.4372 20.1647 7.74609 19.9115C6.23427 19.3039 4.98162 18.3418 3.94495 16.9746C3.38342 16.2656 2.95148 15.4555 2.60592 14.5946C2.56272 14.544 2.56273 14.4934 2.51953 14.3921C3.5562 14.544 4.50649 14.2908 5.41358 13.5312Z" fill="#FA72B2"/>
<path d="M15.7347 13.5312C16.5986 14.2908 17.5489 14.544 18.6719 14.3414C18.4992 14.6959 18.3696 14.9997 18.24 15.3035C17.1169 17.4809 15.5187 19 13.4454 19.8609C12.6247 20.2153 11.804 19.7596 11.5448 18.8481C11.2856 17.9367 11.6744 16.9746 12.4519 16.6201C13.8341 16.0631 14.8708 15.0504 15.6483 13.5819C15.6483 13.6325 15.6915 13.5819 15.7347 13.5312Z" fill="#FA72B2"/>
</svg>
