<svg width="16" height="16" viewBox="0 0 16 16" fill="none" xmlns="http://www.w3.org/2000/svg">
<path d="M8.08691 0.000671387V15.9994C12.4652 15.953 16 12.3892 16 8.00002C16 3.6108 12.4652 0.0470151 8.08691 0.000671387Z" fill="#FFB751"/>
<path d="M8.08691 0.00065625C8.05794 0.0003125 8.02897 0 8 0C3.58181 0 0 3.58181 0 8C0 12.4182 3.58181 16 8 16C8.02897 16 8.05794 15.9997 8.08691 15.9993C11.7537 15.944 14.7123 12.3837 14.7123 8C14.7123 3.61625 11.7537 0.0560312 8.08691 0.00065625Z" fill="#FFD764"/>
<path d="M11.6541 7.04065H11.1712L8.04102 11.0406H11.2568C11.8083 10.3379 12.137 9.45193 12.137 8.48934V7.52356C12.137 7.25793 11.9197 7.04065 11.6541 7.04065Z" fill="#401510"/>
<path d="M4.34619 7.04065C4.08059 7.04065 3.86328 7.25796 3.86328 7.52356V8.48934C3.86328 9.4519 4.19197 10.3379 4.74344 11.0406L10.7652 10.5152C11.0237 9.91646 11.1711 9.22527 11.1711 8.48934V8.00643L4.82906 7.04065H4.34619Z" fill="#901C0F"/>
<path d="M10.7652 10.5153L8.04102 12.6259C9.34645 12.6133 10.507 11.9962 11.2568 11.0407C11.1084 10.8517 10.9439 10.6756 10.7652 10.5153Z" fill="#E0230D"/>
<path d="M10.7649 10.5152C10.2279 11.7608 9.2106 12.6065 8.0407 12.6258C8.02716 12.6261 8.01332 12.6261 7.99982 12.6261C6.67763 12.6261 5.50066 12.0061 4.74316 11.0406C5.50066 10.0755 6.67766 9.45514 7.99982 9.45514C9.06285 9.45511 10.0322 9.85623 10.7649 10.5152Z" fill="#FF5440"/>
<path d="M10.2056 7.04065L9.72266 8.48934H10.6884C10.954 8.48934 11.1713 8.27202 11.1713 8.00643V7.04065H10.2056Z" fill="#FFE7A3"/>
<path d="M10.2054 7.04065V8.00643C10.2054 8.27202 9.98804 8.48934 9.72245 8.48934H5.31201C5.04641 8.48934 4.8291 8.27202 4.8291 8.00643V7.04065H10.2054Z" fill="white"/>
<path d="M2.09293 8.63746C2.53743 8.63746 2.89777 8.27712 2.89777 7.83261C2.89777 7.38811 2.53743 7.02777 2.09293 7.02777C1.64843 7.02777 1.28809 7.38811 1.28809 7.83261C1.28809 8.27712 1.64843 8.63746 2.09293 8.63746Z" fill="#FF804C"/>
<path d="M13.9074 8.65034C14.3519 8.65034 14.7122 8.29 14.7122 7.84549C14.7122 7.40099 14.3519 7.04065 13.9074 7.04065C13.4629 7.04065 13.1025 7.40099 13.1025 7.84549C13.1025 8.29 13.4629 8.65034 13.9074 8.65034Z" fill="#FF804C"/>
<path d="M5.79507 5.83351C5.66173 5.83351 5.55363 5.72542 5.55363 5.59208C5.55363 5.19267 5.2287 4.86773 4.82929 4.86773C4.42988 4.86773 4.10495 5.19267 4.10495 5.59208C4.10495 5.72542 3.99685 5.83351 3.86351 5.83351C3.73016 5.83351 3.62207 5.72542 3.62207 5.59208C3.62207 4.92639 4.16363 4.38483 4.82932 4.38483C5.49501 4.38483 6.03657 4.92639 6.03657 5.59208C6.03651 5.72542 5.92841 5.83351 5.79507 5.83351Z" fill="#401510"/>
<path d="M12.1369 5.83351C12.0035 5.83351 11.8954 5.72542 11.8954 5.59208C11.8954 5.19267 11.5705 4.86773 11.1711 4.86773C10.7717 4.86773 10.4467 5.19267 10.4467 5.59208C10.4467 5.72542 10.3387 5.83351 10.2053 5.83351C10.0719 5.83351 9.96387 5.72542 9.96387 5.59208C9.96387 4.92639 10.5054 4.38483 11.1711 4.38483C11.8368 4.38483 12.3784 4.92639 12.3784 5.59208C12.3783 5.72542 12.2702 5.83351 12.1369 5.83351Z" fill="#401510"/>
<path d="M8.24192 13.8335H7.75902C7.62567 13.8335 7.51758 13.7254 7.51758 13.5921C7.51758 13.4587 7.62567 13.3506 7.75902 13.3506H8.24192C8.3753 13.3506 8.48336 13.4587 8.48336 13.5921C8.48339 13.7254 8.3753 13.8335 8.24192 13.8335Z" fill="#FFB751"/>
</svg>
