<svg width="16" height="16" viewBox="0 0 16 16" fill="none" xmlns="http://www.w3.org/2000/svg">
<g clip-path="url(#clip0_2160_54925)">
<path d="M8 16C12.4183 16 16 12.4183 16 8C16 3.58172 12.4183 0 8 0C3.58172 0 0 3.58172 0 8C0 12.4183 3.58172 16 8 16Z" fill="#FF9451"/>
<path d="M7.5127 10.3571L12.0535 14.8979C14.4151 13.5072 16.0001 10.9389 16.0001 8.00001C16.0001 7.59842 15.9701 7.20385 15.913 6.81814L12.4055 3.31067L7.5127 10.3571Z" fill="#F7674F"/>
<path d="M7.71141 7.05312C8.11078 7.05312 8.43453 6.72937 8.43453 6.33C8.43453 5.93063 8.11078 5.60687 7.71141 5.60687C7.31204 5.60687 6.98828 5.93063 6.98828 6.33C6.98828 6.72937 7.31204 7.05312 7.71141 7.05312Z" fill="#F2D99C"/>
<path d="M12.7856 7.05312C13.185 7.05312 13.5087 6.72937 13.5087 6.33C13.5087 5.93063 13.185 5.60687 12.7856 5.60687C12.3863 5.60687 12.0625 5.93063 12.0625 6.33C12.0625 6.72937 12.3863 7.05312 12.7856 7.05312Z" fill="#D3BC89"/>
<path d="M13.9555 10.6138L11.6035 10.313C11.3148 10.276 11.0985 10.0303 11.0985 9.73921V8.67242H9.39945V9.73921C9.39945 10.0303 9.18314 10.276 8.89442 10.313L6.54248 10.6138C5.82255 10.7059 5.2832 11.3187 5.2832 12.0445V13.1347C6.57689 14.3621 8.32492 15.1153 10.249 15.1153C10.884 15.1153 11.4997 15.0328 12.0864 14.8787C13.392 14.1015 14.4574 12.9635 15.1452 11.602C14.9777 11.0823 14.5227 10.6864 13.9555 10.6138Z" fill="#D3BC89"/>
<path d="M11.6345 9.11505L11.2353 9.33001C10.6218 9.66033 9.88348 9.66033 9.27002 9.33001L8.8708 9.11505C8.13355 8.71808 7.67383 7.94836 7.67383 7.11105V4.64856H12.8315V7.11105C12.8315 7.94836 12.3717 8.71808 11.6345 9.11505Z" fill="#FFECB3"/>
<path d="M10.2188 4.64856V9.57725C10.5679 9.5829 10.9181 9.50065 11.235 9.33003L11.6342 9.11506C12.3715 8.71809 12.8312 7.94837 12.8312 7.11106V4.64856H10.2188Z" fill="#FFD863"/>
<path d="M15.1443 11.602C14.9767 11.0823 14.5218 10.6864 13.9545 10.6138L11.964 10.3592C11.5348 10.817 10.925 11.1034 10.248 11.1034C9.57098 11.1034 8.9612 10.817 8.53204 10.3592L6.54151 10.6138C5.82157 10.7059 5.28223 11.3187 5.28223 12.0445V13.1347C6.12054 13.9301 7.1497 15.1991 8.29389 15.9941C11.2914 15.8856 13.8681 14.1285 15.1443 11.602Z" fill="white"/>
<path d="M15.1443 11.602C14.9768 11.0823 14.5219 10.6864 13.9545 10.6138L11.964 10.3592C11.5349 10.817 10.9251 11.1034 10.248 11.1034V15.6792C12.3877 15.0537 14.156 13.5585 15.1443 11.602Z" fill="#F2F2F2"/>
<path d="M10.1263 11.1002C9.49845 11.0679 8.93592 10.7892 8.53283 10.3592L7.67383 10.4691L9.03402 12.2243L10.2488 11.104C10.2076 11.104 10.1668 11.1027 10.1263 11.1002Z" fill="#E0E0E0"/>
<path d="M10.249 11.104L11.4638 12.2243L12.824 10.4691L11.965 10.3592C11.5619 10.7892 10.9994 11.0679 10.3715 11.1002C10.331 11.1027 10.2901 11.104 10.249 11.104Z" fill="#E0E0E0"/>
<path d="M12.8011 7.42935H13.2541V5.40241C13.2541 3.74091 11.9042 2.39466 10.2414 2.40041C8.58225 2.40616 7.25 3.77585 7.25 5.43501V7.42935H7.67319V6.02863C9.63737 6.28304 11.1921 4.87798 11.1921 4.87798C11.1921 4.87798 11.8736 6.19848 12.8011 6.43266V7.42935Z" fill="#4D4D4D"/>
<path d="M10.2417 2.40035C10.2341 2.40038 10.2264 2.40063 10.2188 2.40072V5.52351C10.8237 5.21104 11.1924 4.87795 11.1924 4.87795C11.1924 4.87795 11.874 6.19845 12.8014 6.43264V7.42932H13.2544V5.40238C13.2544 3.74085 11.9046 2.3946 10.2417 2.40035Z" fill="#333333"/>
<path d="M7.91883 7.06H2.12695V11.8122H7.91883V7.06Z" fill="#754C24"/>
<path d="M7.91875 7.06H5V11.8122H7.91875V7.06Z" fill="#603813"/>
<path d="M8.10404 11.5077L6.14641 11.2573C5.9061 11.2266 5.72603 11.022 5.72603 10.7798V9.89185H4.31184V10.7798C4.31184 11.022 4.13181 11.2266 3.8915 11.2573L1.93387 11.5077C1.57834 11.5532 1.27618 11.7515 1.08887 12.0313C2.15165 13.8493 3.91087 15.2106 6.00097 15.7482C7.16972 15.5831 8.24519 15.1278 9.15216 14.4575V12.6985C9.1522 12.0944 8.70329 11.5844 8.10404 11.5077Z" fill="#F2D99C"/>
<path d="M8.10413 11.5077L6.1465 11.2573C5.90619 11.2266 5.72612 11.022 5.72612 10.7798V9.89185H5V15.4179C5.32378 15.549 5.65788 15.66 6.00109 15.7483C7.16984 15.5831 8.24531 15.1279 9.15228 14.4575V12.6985C9.15228 12.0944 8.70338 11.5844 8.10413 11.5077Z" fill="#CEB786"/>
<path d="M6.35594 10.0291L5.97081 10.2365C5.37903 10.5552 4.66675 10.5552 4.07497 10.2365L3.68984 10.0291C2.97866 9.64619 2.53516 8.90369 2.53516 8.09594V5.72046H7.51056V8.09594C7.51062 8.90366 7.06712 9.64619 6.35594 10.0291Z" fill="#FFECB3"/>
<path d="M5 5.72046V10.4751C5.33362 10.4789 5.66797 10.3995 5.97075 10.2365L6.35588 10.0291C7.06706 9.64617 7.51053 8.90367 7.51053 8.09592V5.72046H5Z" fill="#FFD863"/>
<path d="M8.104 11.5077L6.44719 11.2958C6.08997 11.6768 5.58243 11.9152 5.01893 11.9152C4.45543 11.9152 3.94787 11.6768 3.59065 11.2958L1.93387 11.5077C1.57834 11.5532 1.27618 11.7515 1.08887 12.0312C2.45818 14.3737 4.984 15.957 7.88322 15.9985C8.31578 15.9913 8.73969 15.9488 9.15216 15.8733V12.6985C9.15216 12.0944 8.70325 11.5844 8.104 11.5077Z" fill="#008CC3"/>
<path d="M8.10413 11.5077L6.44731 11.2958C6.09009 11.6768 5.58256 11.9152 5.01906 11.9152C5.01266 11.9152 5.00637 11.9148 5 11.9147V15.4176C5.89244 15.7788 6.86478 15.9839 7.88334 15.9985C8.31591 15.9913 8.73981 15.9488 9.15228 15.8733V12.6985C9.15228 12.0944 8.70338 11.5844 8.10413 11.5077Z" fill="#0074A3"/>
<path d="M5.01267 3.55171C3.41214 3.55725 2.12695 4.87853 2.12695 6.47909V10.5231L2.46608 9.71831C2.5637 9.48665 2.61398 9.23781 2.61398 8.98643V7.3675C5.20495 7.03925 6.15833 5.84806 6.15833 5.84806C6.15833 5.84806 6.5093 6.68259 7.43183 7.3705V8.98643C7.43183 9.23781 7.48211 9.48665 7.57973 9.71828L7.91886 10.5231V6.44762C7.91886 4.84484 6.61677 3.54615 5.01267 3.55171Z" fill="#8C6239"/>
<path d="M7.91878 6.44759C7.91878 4.84478 6.61669 3.54612 5.01259 3.55165C5.00837 3.55165 5.00422 3.55184 5 3.55187V6.68115C5.82025 6.27018 6.15825 5.848 6.15825 5.848C6.15825 5.848 6.50922 6.68253 7.43175 7.37043V8.98637C7.43175 9.23775 7.48203 9.48659 7.57966 9.71822L7.91878 10.523V6.44759Z" fill="#754C24"/>
<path d="M11.0961 13.0869L9.66979 12.9045C9.4947 12.882 9.36351 12.733 9.36351 12.5565V11.9096H8.33316V12.5565C8.33316 12.733 8.20198 12.882 8.02688 12.9045L6.6006 13.0869C6.16401 13.1427 5.83691 13.5143 5.83691 13.9545V15.2361C6.25654 15.5462 6.72566 15.7932 7.23023 15.963C7.48354 15.9872 7.74013 16 7.99973 16C9.39954 16 10.7152 15.64 11.8597 15.0083V13.9545C11.8597 13.5143 11.5327 13.1427 11.0961 13.0869Z" fill="#F2D99C"/>
<path d="M11.8597 13.9545C11.8597 13.5143 11.5326 13.1427 11.096 13.0869L9.66973 12.9045C9.49463 12.882 9.36345 12.733 9.36345 12.5565V11.9096H8.83301V15.9568C9.92154 15.844 10.9452 15.513 11.8597 15.0083V13.9545Z" fill="#C9B587"/>
<path d="M9.82281 12.0096L9.54222 12.1607C9.11106 12.3928 8.59209 12.3928 8.16094 12.1607L7.88034 12.0096C7.36219 11.7306 7.03906 11.1896 7.03906 10.6011V8.87036H10.6641V10.6011C10.6641 11.1896 10.341 11.7306 9.82281 12.0096Z" fill="#FFECB3"/>
<path d="M8.83301 8.87036V12.3342C9.07654 12.3372 9.32063 12.2797 9.54166 12.1607L9.82226 12.0096C10.3404 11.7306 10.6635 11.1896 10.6635 10.6011V8.87039H8.83301V8.87036Z" fill="#FFD863"/>
<path d="M11.0961 13.0869L9.88895 12.9325C9.6287 13.2101 9.25891 13.3838 8.84835 13.3838C8.43779 13.3838 8.06801 13.2101 7.80773 12.9325L6.6006 13.0869C6.16401 13.1427 5.83691 13.5143 5.83691 13.9545V15.7039C6.52491 15.8967 7.25023 16 7.99973 16C9.39954 16 10.7152 15.6401 11.8597 15.0083V13.9545C11.8597 13.5143 11.5327 13.1427 11.0961 13.0869Z" fill="#983262"/>
<path d="M11.8597 13.9545C11.8597 13.5143 11.5326 13.1427 11.096 13.0869L9.88888 12.9325C9.62863 13.2101 9.25885 13.3838 8.84829 13.3838C8.84316 13.3838 8.83813 13.3835 8.83301 13.3834V15.9568C9.92154 15.844 10.9452 15.513 11.8597 15.0083V13.9545Z" fill="#662E57"/>
<path d="M6.73828 10.028C8.13225 10.028 8.84547 8.99942 8.84547 8.99942C8.84547 8.99942 9.56419 10.028 10.9582 10.028V9.40017C10.9582 8.23239 10.0095 7.2862 8.84075 7.29024C7.67462 7.29427 6.73828 8.25695 6.73828 9.42308V10.028Z" fill="#754C24"/>
<path d="M8.84082 7.29024C8.8382 7.29024 8.8356 7.29045 8.83301 7.29045V9.01652C8.84104 9.0058 8.84554 8.99939 8.84554 8.99939C8.84554 8.99939 9.56426 10.028 10.9582 10.028V9.40014C10.9582 8.23239 10.0095 7.2862 8.84082 7.29024Z" fill="#603813"/>
<path d="M6.74158 11.2739H5.4043L5.83617 9.73934C5.9072 9.48694 6.13742 9.31256 6.39964 9.31256H6.74158V11.2739Z" fill="#8C6239"/>
<path d="M6.74182 9.3125H6.40723V10.028H6.74182V9.3125Z" fill="#FF3F84"/>
<path d="M10.9561 11.2739H12.2933L11.8615 9.73934C11.7904 9.48694 11.5602 9.31256 11.298 9.31256H10.9561V11.2739Z" fill="#754C24"/>
<path d="M11.2906 9.3125H10.9561V10.028H11.2906V9.3125Z" fill="#983262"/>
</g>
<defs>
<clipPath id="clip0_2160_54925">
<rect width="16" height="16" fill="white"/>
</clipPath>
</defs>
</svg>
