<svg width="20" height="20" viewBox="0 0 20 20" fill="none" xmlns="http://www.w3.org/2000/svg">
<path d="M10 20C15.5228 20 20 15.5228 20 10C20 4.47715 15.5228 0 10 0C4.47715 0 0 4.47715 0 10C0 15.5228 4.47715 20 10 20Z" fill="#FFD400"/>
<path d="M20 10C20 9.99547 19.9998 9.99098 19.9998 9.98645L14.6618 4.64844L3.91113 14.638L9.24484 19.9717C9.49414 19.9904 9.74594 20 10 20C15.5229 20 20 15.5229 20 10Z" fill="#FF9F00"/>
<path d="M3.91113 6.0752V14.6377H8.30895C8.54442 15.0587 9.19375 15.3512 10 15.3512C10.8063 15.3512 11.4557 15.0587 11.6911 14.6377H16.089V6.0752H3.91113Z" fill="#5A5A5A"/>
<path d="M16.0889 6.0752V14.6377H11.6911C11.4556 15.0587 10.8063 15.3512 10 15.3512V6.0752H16.0889Z" fill="#444444"/>
<path d="M10.5634 4.64844L9.99969 5.21211L9.43602 4.64844H5.33789V13.2109H9.13629L9.99969 14.0743L10.8631 13.2109H14.6615V4.64844H10.5634Z" fill="#E7E7E7"/>
<path d="M14.6618 4.64844V13.2109H10.8634L10 14.0743V5.21211L10.5637 4.64844H14.6618Z" fill="#D3D3D8"/>
</svg>
