<svg width="20" height="20" viewBox="0 0 20 20" fill="none" xmlns="http://www.w3.org/2000/svg">
<g clip-path="url(#clip0_2175_20118)">
<path d="M10 20C15.5228 20 20 15.5228 20 10C20 4.47715 15.5228 0 10 0C4.47715 0 0 4.47715 0 10C0 15.5228 4.47715 20 10 20Z" fill="#D35933"/>
<path d="M19.9998 9.99961C19.9998 9.67801 19.984 9.36016 19.9543 9.04633L16.3045 5.39648L10.7854 8.55176L9.27027 8.18141L3.71191 14.0511L9.65375 19.993C9.76871 19.9969 9.88391 19.9996 9.9998 19.9996C15.5226 19.9996 19.9998 15.5224 19.9998 9.99961Z" fill="#B54324"/>
<path d="M13.1445 5.86634C10.4796 4.92654 10.0004 6.94818 10.0004 6.94818C10.0004 6.94818 9.53684 4.92658 6.87195 5.86634C4.20707 6.80611 3.71191 6.47826 3.71191 6.47826V14.0511C3.71191 14.0511 4.20699 14.3789 6.87191 13.4392C9.53684 12.4993 10.0003 14.521 10.0003 14.521C10.0003 14.521 10.4796 12.4994 13.1445 13.4392C15.8094 14.3789 16.3045 14.0511 16.3045 14.0511V6.47826C16.3045 6.47826 15.8094 6.80607 13.1445 5.86634Z" fill="#FFC61B"/>
<path d="M13.1446 5.86634C10.4797 4.92654 10.0005 6.94818 10.0005 6.94818C10.0005 6.94818 10.0003 6.94736 10 6.94611V14.5189C10.0004 14.5202 10.0005 14.521 10.0005 14.521C10.0005 14.521 10.4797 12.4994 13.1446 13.4392C15.8096 14.3789 16.3046 14.0511 16.3046 14.0511V6.47826C16.3046 6.47826 15.8096 6.80607 13.1446 5.86634Z" fill="#EAA22F"/>
<path d="M13.1445 4.78529C10.4796 3.84548 10.0004 5.86712 10.0004 5.86712C10.0004 5.86712 9.53684 3.84552 6.87195 4.78529C4.20707 5.72505 3.71191 5.3972 3.71191 5.3972V12.9701C3.71191 12.9701 4.20699 13.2979 6.87191 12.3581C9.53684 11.4183 10.0003 13.44 10.0003 13.44C10.0003 13.44 10.4796 11.4184 13.1445 12.3581C15.8094 13.2979 16.3045 12.9701 16.3045 12.9701V5.39728C16.3045 5.39728 15.8094 5.72509 13.1445 4.78529Z" fill="#FFEDB5"/>
<path d="M16.3052 12.97C16.3052 12.97 15.8101 13.2978 13.1452 12.3581C10.4802 11.4183 10.001 13.4399 10.001 13.4399V5.86711C10.001 5.86711 10.4802 3.84551 13.1452 4.78527C15.8101 5.72504 16.3052 5.39719 16.3052 5.39719V12.97Z" fill="#FEE187"/>
</g>
<defs>
<clipPath id="clip0_2175_20118">
<rect width="20" height="20" fill="white"/>
</clipPath>
</defs>
</svg>
