<svg width="16" height="16" viewBox="0 0 16 16" fill="none" xmlns="http://www.w3.org/2000/svg">
<path d="M7.99998 16C12.4183 16 16 12.4183 16 7.99998C16 3.58171 12.4183 0 7.99998 0C3.58171 0 0 3.58171 0 7.99998C0 12.4183 3.58171 16 7.99998 16Z" fill="#662E57"/>
<path d="M16 8.00001C16 7.72604 15.9861 7.45532 15.9592 7.18842L13.2187 4.44792L12.485 5.73536L9.95833 3.20874L6.47549 3.63902L2.78125 11.5521L7.18843 15.9593C7.4553 15.9861 7.72602 16 7.99999 16C12.4183 16 16 12.4183 16 8.00001Z" fill="#590F38"/>
<path d="M9.95867 4.61499H9.52117V3.64624H6.47949V4.61499H6.04199V3.20874H9.95867V4.61499Z" fill="#FF9451"/>
<path d="M6.04199 3.20874V4.61499H6.47949V3.64624H7.99883V3.20874" fill="#FF9451"/>
<path d="M7.99805 3.20874V3.64624H9.52039V4.61499H9.95789V3.20874H7.99805Z" fill="#F7674F"/>
<path d="M13.2187 4.44781H2.78125V11.5519H13.2187V4.44781Z" fill="#FF9451"/>
<path d="M13.2183 4.44781H7.99805V11.5519H13.2183V4.44781Z" fill="#F7674F"/>
<path d="M13.2187 4.44781H2.78125V7.42687H13.2187V4.44781Z" fill="#FF6838"/>
<path d="M13.2183 4.44781H7.99805V7.42687H13.2183V4.44781Z" fill="#AE4E32"/>
<path d="M5.17832 6.38531H4.17676V8.28116H5.17832V6.38531Z" fill="#AE4E32"/>
<path d="M11.8228 6.38531H10.8213V8.28116H11.8228V6.38531Z" fill="#893927"/>
</svg>
