<svg width="16" height="16" viewBox="0 0 16 16" fill="none" xmlns="http://www.w3.org/2000/svg">
<path d="M8.08691 0.000671387V15.9994C12.4652 15.953 16 12.3892 16 8.00002C16 3.6108 12.4652 0.0470151 8.08691 0.000671387Z" fill="#FFB751"/>
<path d="M8.08691 0.00065625C8.05794 0.0003125 8.02897 0 8 0C3.58181 0 0 3.58181 0 8C0 12.4182 3.58181 16 8 16C8.02897 16 8.05794 15.9997 8.08691 15.9993C11.7537 15.944 14.7123 12.3837 14.7123 8C14.7123 3.61625 11.7537 0.0560312 8.08691 0.00065625Z" fill="#FFD764"/>
<path d="M11.1709 5.35052V8.73081C12.1042 8.73081 12.8611 7.97427 12.8611 7.04068C12.861 6.1074 12.1042 5.35052 11.1709 5.35052Z" fill="#DEF1FF"/>
<path d="M11.1706 5.35052C11.5708 5.35052 11.895 6.1074 11.895 7.04068C11.895 7.97427 11.5708 8.73084 11.1706 8.73084C10.2373 8.73084 9.48047 7.97431 9.48047 7.04071C9.48047 6.1074 10.2373 5.35052 11.1706 5.35052Z" fill="white"/>
<path d="M11.1716 7.76509C11.571 7.76509 11.896 7.44012 11.896 7.04075C11.896 6.64138 11.571 6.31641 11.1716 6.31641C10.7722 6.31641 10.4473 6.64138 10.4473 7.04075C10.4473 7.44012 10.7722 7.76509 11.1716 7.76509Z" fill="#0E2739"/>
<path d="M9.12678 10.5421C9.0779 10.5421 9.02862 10.5274 8.98596 10.4967C8.69762 10.2892 8.35672 10.1796 8.00016 10.1796C7.66144 10.1796 7.33472 10.2793 7.05532 10.4681C6.94476 10.5427 6.79473 10.5136 6.7201 10.4031C6.64548 10.2926 6.67451 10.1426 6.78504 10.0679C7.14457 9.82503 7.56475 9.69666 8.00016 9.69666C8.45856 9.69666 8.89697 9.83772 9.268 10.1046C9.37621 10.1825 9.40087 10.3334 9.32299 10.4416C9.27581 10.5072 9.20184 10.5421 9.12678 10.5421Z" fill="#FF804C"/>
<path d="M8.24192 11.5079H7.75902C7.62564 11.5079 7.51758 11.3998 7.51758 11.2665C7.51758 11.1331 7.62564 11.025 7.75902 11.025H8.24192C8.3753 11.025 8.48336 11.1331 8.48336 11.2665C8.48339 11.3998 8.3753 11.5079 8.24192 11.5079Z" fill="#FFB751"/>
<path d="M10.4465 4.62619H9.4807C9.34732 4.62619 9.23926 4.51809 9.23926 4.38475C9.23926 4.2514 9.34732 4.14331 9.4807 4.14331H10.4465C10.5799 4.14331 10.6879 4.2514 10.6879 4.38475C10.6879 4.51809 10.5799 4.62619 10.4465 4.62619Z" fill="#661A11"/>
<path d="M4.8291 5.35052V8.73081C5.76238 8.73081 6.51926 7.97427 6.51926 7.04068C6.51926 6.1074 5.76238 5.35052 4.8291 5.35052Z" fill="#DEF1FF"/>
<path d="M4.82883 5.35052C5.22898 5.35052 5.55317 6.1074 5.55317 7.04068C5.55317 7.97427 5.22898 8.73084 4.82883 8.73084C3.89555 8.73084 3.13867 7.97431 3.13867 7.04071C3.1387 6.1074 3.89555 5.35052 4.82883 5.35052Z" fill="white"/>
<path d="M4.82884 7.76509C5.22821 7.76509 5.55318 7.44012 5.55318 7.04075C5.55318 6.64138 5.22821 6.31641 4.82884 6.31641C4.42946 6.31641 4.10449 6.64138 4.10449 7.04075C4.10449 7.44012 4.42946 7.76509 4.82884 7.76509Z" fill="#0E2739"/>
<path d="M6.51874 4.62619H5.55296C5.41959 4.62619 5.31152 4.51809 5.31152 4.38475C5.31152 4.2514 5.41959 4.14331 5.55296 4.14331H6.51874C6.65212 4.14331 6.76018 4.2514 6.76018 4.38475C6.76018 4.51809 6.65212 4.62619 6.51874 4.62619Z" fill="#661A11"/>
<path d="M12.2371 11.666L11.1709 9.68933V13.4395C11.8376 13.4395 12.3781 12.899 12.3781 12.2323C12.3782 12.0275 12.327 11.835 12.2371 11.666Z" fill="#0789DE"/>
<path d="M11.5265 11.666C11.5565 11.835 11.5735 12.0275 11.5735 12.2323C11.5735 12.899 11.3932 13.4395 11.1711 13.4395C10.5044 13.4395 9.96387 12.899 9.96387 12.2323C9.96387 12.0275 10.0151 11.835 10.1049 11.666L11.1711 9.68933L11.5265 11.666Z" fill="#54BBFF"/>
</svg>
