<svg width="17" height="16" viewBox="0 0 17 16" fill="none" xmlns="http://www.w3.org/2000/svg">
<g clip-path="url(#clip0_2160_54819)">
<path d="M8.26367 0.000671387V15.9994C12.677 15.953 16.2401 12.3892 16.2401 8.00002C16.2401 3.6108 12.677 0.0470151 8.26367 0.000671387Z" fill="#FFB751"/>
<path d="M8.26391 0.00065625C8.23471 0.0003125 8.20551 0 8.17631 0C3.72277 0 0.112305 3.58181 0.112305 8C0.112305 12.4182 3.72277 16 8.17631 16C8.20551 16 8.23471 15.9997 8.26391 15.9993C11.9601 15.944 14.9423 12.3837 14.9423 8C14.9423 3.61625 11.9601 0.0560312 8.26391 0.00065625Z" fill="#FFD764"/>
<path d="M2.47559 8.94184L3.34486 11.0239C3.9244 10.7857 4.19958 10.1266 3.95955 9.55166C3.71952 8.97672 3.05512 8.70369 2.47559 8.94184Z" fill="#FF5440"/>
<path d="M2.47586 8.9418C2.72411 8.83977 3.12016 9.22308 3.36019 9.79802C3.60022 10.373 3.59336 10.9218 3.34514 11.0238C2.7656 11.2619 2.10123 10.9889 1.86117 10.414C1.62111 9.83905 1.89633 9.17993 2.47586 8.9418Z" fill="#FF804C"/>
<path d="M7.09453 9.78907C6.39305 9.78907 5.69344 9.62251 5.05383 9.29192C4.93463 9.23029 4.88833 9.08451 4.95044 8.96623C5.01256 8.84795 5.1596 8.8021 5.27874 8.86367C6.31232 9.39788 7.52198 9.45076 8.59758 9.00879C9.67309 8.56682 10.4908 7.68088 10.8409 6.57816C10.8812 6.45097 11.0179 6.38032 11.1461 6.42041C11.2743 6.46047 11.3455 6.59607 11.3051 6.72326C10.9117 7.96254 9.99269 8.95816 8.78388 9.45495C8.24059 9.67813 7.66691 9.78907 7.09453 9.78907Z" fill="#FF804C"/>
<path d="M3.39473 7.59995C3.29922 7.59995 3.2086 7.54379 3.16979 7.45082C2.913 6.83579 3.20847 6.12823 3.82839 5.87345C4.44828 5.61873 5.16157 5.9118 5.41835 6.52683C5.46979 6.65001 5.41083 6.79126 5.28662 6.84229C5.16248 6.89333 5.02007 6.83483 4.96863 6.71161C4.81456 6.34261 4.38654 6.16676 4.01468 6.31958C3.64273 6.47242 3.46548 6.89698 3.61952 7.26598C3.67095 7.3892 3.61199 7.53042 3.48778 7.58145C3.45729 7.59401 3.42576 7.59995 3.39473 7.59995Z" fill="#401510"/>
<path d="M9.30098 5.17299C9.20548 5.17299 9.11485 5.11683 9.07604 5.02386C8.81926 4.40883 9.11469 3.70127 9.73464 3.44652C10.0349 3.32308 10.3657 3.32308 10.666 3.44652C10.9663 3.56993 11.2002 3.80196 11.3246 4.0999C11.376 4.22311 11.3171 4.36433 11.1929 4.41536C11.0688 4.4664 10.9263 4.4079 10.8749 4.28468C10.8003 4.1059 10.66 3.96671 10.4797 3.89265C10.2996 3.81861 10.1011 3.81865 9.9209 3.89265C9.54895 4.04549 9.3717 4.47002 9.52574 4.83902C9.57718 4.96221 9.51821 5.10346 9.39404 5.15449C9.36358 5.16702 9.33204 5.17299 9.30098 5.17299Z" fill="#401510"/>
<path d="M8.83826 10.4581C8.74275 10.4581 8.65216 10.4019 8.61332 10.309C8.56188 10.1857 8.62085 10.0445 8.74502 9.99348L9.19471 9.8087C9.31886 9.75773 9.4613 9.81617 9.51271 9.93936C9.56415 10.0626 9.50518 10.2038 9.38101 10.2548L8.93131 10.4396C8.90082 10.4522 8.86929 10.4581 8.83826 10.4581Z" fill="#FFB751"/>
<path d="M12.8789 4.66681L13.7482 6.7488C14.3277 6.51068 14.6029 5.85155 14.3629 5.27662C14.1228 4.70168 13.4584 4.42868 12.8789 4.66681Z" fill="#FF5440"/>
<path d="M12.8792 4.66684C13.1274 4.56481 13.5235 4.94812 13.7635 5.52305C14.0035 6.09799 13.9967 6.64683 13.7485 6.74883C13.1689 6.98696 12.5046 6.71396 12.2645 6.13902C12.0244 5.56408 12.2996 4.90496 12.8792 4.66684Z" fill="#FF804C"/>
</g>
<defs>
<clipPath id="clip0_2160_54819">
<rect width="16.128" height="16" fill="white" transform="translate(0.112305)"/>
</clipPath>
</defs>
</svg>
