<svg width="16" height="16" viewBox="0 0 16 16" fill="none" xmlns="http://www.w3.org/2000/svg">
<g clip-path="url(#clip0_2160_55156)">
<path d="M7.15799 10.4088L7.25664 11.7028L14.4184 13.1859C15.1635 12.1011 16.8975 9.67134 14.9745 7.76728C13.4947 6.30191 11.3433 6.45766 11.3433 6.45766C11.3433 6.45766 7.62914 4.14503 7.15799 10.4088Z" fill="#F4DD45"/>
<path d="M12.7571 11.7041L12.8586 14.3397L14.4184 13.1859C15.1635 12.1011 16.8975 9.67136 14.9745 7.76729C13.4947 6.30192 11.3433 6.45767 11.3433 6.45767C14.6992 7.73998 13.7943 10.7204 12.7571 11.7041Z" fill="#EAB14D"/>
<path d="M13.3812 14.6015C13.9259 14.8096 14.536 14.5368 14.7441 13.9922C14.7728 13.9172 14.7923 13.841 14.8033 13.7648C14.8918 13.1493 14.0223 12.9236 13.8004 13.5044L7.48932 11.0929C7.71125 10.5121 6.91278 10.1005 6.56838 10.6182C6.52572 10.6823 6.48947 10.7521 6.46081 10.8271C6.25272 11.3717 6.5255 11.9819 7.07013 12.19" fill="#EAAC9D"/>
<path d="M7.87125 10.0943L7.25662 11.7028C6.77131 12.9729 7.40743 14.3961 8.67772 14.8815L10.389 15.5354C11.6591 16.0207 13.0824 15.3843 13.5677 14.1143L14.165 12.551C13.7057 12.2997 13.2238 12.0148 12.757 11.7041C11.6251 10.9512 10.5806 10.0454 10.1546 9.09265C10.1546 9.09265 9.16175 10.3795 7.87125 10.0943Z" fill="#FFCBBE"/>
<path d="M8.87798 14.958L10.389 15.5354C11.6591 16.0207 13.0824 15.3844 13.5677 14.1143L14.165 12.551C13.7057 12.2997 13.2239 12.0148 12.757 11.7041L12.0567 13.5369C11.5714 14.807 10.1483 15.4434 8.87798 14.958Z" fill="#EAAC9D"/>
<path d="M8.37137 12.6737C8.08613 12.5647 7.90865 12.3357 7.97494 12.1623C8.04124 11.9888 8.32622 11.9366 8.61146 12.0456C8.8967 12.1547 9.07419 12.3836 9.00789 12.5571C8.94159 12.7305 8.65661 12.7828 8.37137 12.6737Z" fill="#E490B7"/>
<path d="M12.0882 14.0943C11.8029 13.9852 11.6254 13.7563 11.6917 13.5828C11.758 13.4094 12.043 13.3571 12.3283 13.4662C12.6135 13.5752 12.791 13.8042 12.7247 13.9776C12.6584 14.1511 12.3734 14.2033 12.0882 14.0943Z" fill="#E490B7"/>
<path d="M10.8564 12.8587C10.9334 12.8587 11.0061 12.8118 11.0352 12.7356C11.0729 12.6369 11.0235 12.5262 10.9248 12.4886L10.3102 12.2537C10.2114 12.216 10.1009 12.2655 10.0632 12.3642C10.0254 12.4629 10.0749 12.5735 10.1736 12.6112L10.7882 12.846C10.8106 12.8546 10.8337 12.8587 10.8564 12.8587Z" fill="#EAAC9D"/>
<path d="M11.3301 13.6236C11.1107 14.1976 10.4675 14.4852 9.89348 14.2658C9.31942 14.0464 9.03186 13.4033 9.25123 12.8292L11.3301 13.6236Z" fill="#454045"/>
<path d="M12.7989 13.2189C12.825 13.2189 12.8515 13.2135 12.8769 13.2022C12.9734 13.1591 13.0167 13.0459 12.9735 12.9494C12.8696 12.7169 12.6813 12.5388 12.4434 12.4478C12.2054 12.3569 11.9464 12.3641 11.7138 12.4681C11.6174 12.5112 11.5741 12.6244 11.6173 12.7208C11.6604 12.8173 11.7736 12.8605 11.8701 12.8174C12.0092 12.7552 12.1643 12.7509 12.3068 12.8053C12.4492 12.8598 12.5619 12.9664 12.6242 13.1056C12.6559 13.1767 12.7257 13.2189 12.7989 13.2189Z" fill="#DF9380"/>
<path d="M9.5616 11.9817C9.58772 11.9817 9.61422 11.9764 9.6396 11.965C9.7361 11.9219 9.77935 11.8087 9.73622 11.7122C9.63226 11.4797 9.44401 11.3016 9.20607 11.2107C8.9681 11.1197 8.70901 11.127 8.47651 11.2309C8.38004 11.274 8.33679 11.3872 8.37991 11.4837C8.42307 11.5802 8.53629 11.6234 8.63272 11.5803C8.77197 11.518 8.92707 11.5137 9.06947 11.5681C9.21191 11.6226 9.3246 11.7292 9.38685 11.8684C9.41863 11.9395 9.48844 11.9817 9.5616 11.9817Z" fill="#DF9380"/>
<path d="M8.53155 6.76084C9.08117 6.56637 9.36908 5.96315 9.17461 5.41353C9.14786 5.33787 9.11333 5.26718 9.07229 5.20203C8.74089 4.67594 7.93242 5.06753 8.13983 5.65368L1.77068 7.9073C1.56327 7.32114 0.688433 7.52518 0.761652 8.14261C0.770714 8.21908 0.78834 8.29574 0.815121 8.37139C1.00959 8.92101 1.61281 9.20892 2.16243 9.01445" fill="#B17A4A"/>
<path d="M7.02456 2.50232L8.35737 6.26913C8.8109 7.55091 8.13934 8.95797 6.85756 9.4115L5.13056 10.0226C3.84856 10.4762 2.44171 9.80453 1.98818 8.52275L0.655371 4.75594" fill="#C38959"/>
<path d="M5.39571 9.92877L6.85756 9.41152C8.13934 8.95798 8.8109 7.55092 8.35737 6.26914L7.02453 2.50226L5.56268 3.01951L6.89553 6.78639C7.34906 8.06817 6.67749 9.47523 5.39571 9.92877Z" fill="#B17A4A"/>
<path d="M2.82625 8.40948C2.76422 8.23436 2.9474 8.0097 3.23539 7.9077C3.52337 7.8057 3.80711 7.86497 3.86914 8.04009C3.93116 8.21521 3.74799 8.43987 3.46 8.54187C3.17201 8.64387 2.88827 8.5846 2.82625 8.40948Z" fill="#E490B7"/>
<path d="M6.58015 7.08239C6.51813 6.90727 6.70131 6.68262 6.98929 6.58062C7.27728 6.47862 7.56102 6.53789 7.62305 6.71301C7.68507 6.88813 7.50189 7.11278 7.21391 7.21478C6.92592 7.31678 6.64218 7.25751 6.58015 7.08239Z" fill="#E490B7"/>
<path d="M4.73523 7.33513C4.75641 7.33513 4.77795 7.3316 4.79904 7.32413L5.41929 7.10469C5.51891 7.06945 5.57113 6.9601 5.53585 6.86048C5.5006 6.76086 5.39123 6.70867 5.29163 6.74392L4.67138 6.96335C4.57176 6.9986 4.51954 7.10794 4.55482 7.20757C4.58263 7.28607 4.65645 7.33513 4.73523 7.33513Z" fill="#B17A4A"/>
<path d="M0.459619 2.1353L5.52916 0.341553C5.88804 0.214553 6.28191 0.402553 6.40891 0.761459L7.02491 2.50236L7.19763 2.99055L7.71582 4.45508C7.35185 4.58386 6.95241 4.39321 6.8236 4.02924L6.53857 3.22374L1.48743 5.01099L1.77247 5.81649C1.90125 6.18046 1.71059 6.57989 1.34662 6.70871L0.828432 5.24418L0.655713 4.75599L0.0397122 3.01508C-0.0872566 2.65618 0.100743 2.2623 0.459619 2.1353Z" fill="#544F57"/>
<path d="M4.0341 0.87053C4.39307 0.743499 4.78685 0.931437 4.91385 1.29044L5.70257 3.51953L6.53866 3.22369L6.82363 4.02904C6.88801 4.21094 7.0202 4.34972 7.18148 4.42688C7.34288 4.50372 7.53394 4.51922 7.71582 4.45488L6.40895 0.761405C6.28191 0.402436 5.88816 0.214498 5.52919 0.341498L4.0341 0.87053Z" fill="#454045"/>
<path d="M6.33538 7.34558C6.54038 7.92492 6.23691 8.56077 5.65753 8.76573C5.07819 8.97073 4.44235 8.66727 4.23738 8.08789L6.33538 7.34558Z" fill="#454045"/>
<path d="M6.05112 6.49069C6.12256 6.49069 6.19112 6.45051 6.22393 6.38173C6.28962 6.24413 6.40493 6.14032 6.54868 6.08948C6.69243 6.03861 6.84737 6.04679 6.98497 6.11245C7.08041 6.15795 7.19459 6.11754 7.24009 6.0222C7.28559 5.92683 7.24519 5.81261 7.14984 5.76708C6.91997 5.65736 6.66115 5.64374 6.42103 5.7287C6.18093 5.81367 5.98827 5.98704 5.87856 6.21688C5.83306 6.31226 5.87346 6.42647 5.96881 6.47201C5.99543 6.48469 6.02349 6.49069 6.05112 6.49069Z" fill="#985E33"/>
<path d="M2.78354 7.64687C2.85498 7.64687 2.92354 7.60669 2.95635 7.53791C3.02204 7.40031 3.13736 7.2965 3.28111 7.24566C3.42486 7.19482 3.57983 7.20294 3.71739 7.26863C3.8128 7.31416 3.92698 7.27372 3.97252 7.17838C4.01802 7.08301 3.97761 6.96879 3.88227 6.92326C3.65236 6.81357 3.39358 6.79992 3.15345 6.88488C2.91335 6.96985 2.7207 7.14322 2.61098 7.37306C2.56548 7.46844 2.60588 7.58266 2.70123 7.62819C2.72782 7.64084 2.75592 7.64687 2.78354 7.64687Z" fill="#985E33"/>
<path d="M9.28913 3.0163C9.35481 3.0163 9.42019 2.98943 9.46744 2.93665L10.1041 2.22552C10.1922 2.12708 10.1838 1.9759 10.0854 1.88777C9.98694 1.79962 9.83572 1.80805 9.74766 1.90643L9.11103 2.61755C9.02294 2.71599 9.03128 2.86718 9.12969 2.9553C9.17531 2.99621 9.23234 3.0163 9.28913 3.0163Z" fill="#80B4FB"/>
<path d="M8.57942 2.59465C8.68051 2.59465 8.77442 2.53006 8.80704 2.42865L9.02848 1.74046C9.06895 1.61471 8.99979 1.47996 8.87404 1.43949C8.74857 1.39899 8.61357 1.46815 8.57311 1.59393L8.35167 2.28212C8.3112 2.40787 8.38036 2.54262 8.50611 2.58309C8.53042 2.59093 8.55511 2.59465 8.57942 2.59465Z" fill="#80B4FB"/>
<path d="M9.78685 3.67566C9.81957 3.67566 9.85285 3.66891 9.88463 3.65466L10.5442 3.35875C10.6647 3.30469 10.7186 3.16313 10.6645 3.0426C10.6105 2.92207 10.4689 2.86819 10.3484 2.92225L9.68879 3.21816C9.56829 3.27222 9.51441 3.41378 9.56847 3.53431C9.60829 3.62303 9.69554 3.67566 9.78685 3.67566Z" fill="#80B4FB"/>
<path d="M5.2048 14.9509C5.25077 14.9509 5.29723 14.9377 5.33827 14.91L6.12981 14.3767C6.23935 14.3028 6.26831 14.1542 6.1945 14.0446C6.12069 13.9351 5.97206 13.9061 5.86246 13.9799L5.07092 14.5133C4.96139 14.5871 4.93242 14.7358 5.00623 14.8454C5.05242 14.9139 5.12792 14.9509 5.2048 14.9509Z" fill="#F4DD45"/>
<path d="M6.19754 15.6133C6.27723 15.6133 6.35517 15.5735 6.40054 15.5009L6.78388 14.888C6.85392 14.776 6.81995 14.6285 6.70795 14.5584C6.59592 14.4884 6.44835 14.5224 6.37832 14.6344L5.99498 15.2473C5.92495 15.3593 5.95892 15.5069 6.07092 15.5769C6.11035 15.6015 6.1542 15.6133 6.19754 15.6133Z" fill="#F4DD45"/>
<path d="M4.96353 13.7816C4.97731 13.7816 4.99122 13.7804 5.00522 13.7779L5.71723 13.6527C5.84733 13.6299 5.93424 13.5059 5.91139 13.3757C5.88852 13.2456 5.76433 13.1587 5.63439 13.1816L4.92237 13.3067C4.79228 13.3296 4.70537 13.4536 4.72821 13.5837C4.74865 13.6998 4.84962 13.7816 4.96353 13.7816Z" fill="#F4DD45"/>
<path d="M11.1453 4.67229L12.4174 2.65429C12.4187 2.65229 12.42 2.65032 12.4213 2.64839C12.4873 2.55017 12.6049 2.5021 12.7209 2.52592C12.8368 2.54976 12.9259 2.64029 12.9478 2.7566C12.9482 2.75848 12.9485 2.76039 12.9488 2.76229L13.3347 5.11907C13.3561 5.24945 13.2677 5.37242 13.1373 5.39376C13.1242 5.39592 13.1112 5.39695 13.0984 5.39695C12.9832 5.39695 12.8818 5.31364 12.8626 5.19635L12.7931 4.77207L11.7786 4.56473L11.5501 4.92739C11.4796 5.03914 11.3319 5.0726 11.2202 5.00217C11.1084 4.93176 11.0749 4.78407 11.1453 4.67229ZM12.7104 4.26695L12.557 3.32998L12.0513 4.13223L12.7104 4.26695Z" fill="#DD636E"/>
<path d="M13.7728 4.08154C13.7728 4.08141 13.7728 4.08132 13.7728 4.08119C13.7729 4.08107 13.7729 4.08097 13.7729 4.08085L13.9917 3.01032C14.0181 2.88088 14.1446 2.79744 14.2739 2.82385C14.4033 2.85032 14.4868 2.97666 14.4604 3.1061L14.2894 3.94263L15.3555 4.1605L15.5264 3.32397C15.5529 3.19454 15.6793 3.1111 15.8087 3.1375C15.9381 3.16397 16.0216 3.29032 15.9951 3.41975L15.7763 4.49038C15.7763 4.49047 15.7763 4.49054 15.7763 4.49063C15.7763 4.49072 15.7762 4.49082 15.7762 4.49091L15.5419 5.63757C15.5187 5.75085 15.419 5.82891 15.3078 5.82891C15.2919 5.82891 15.2758 5.82732 15.2596 5.82404C15.1302 5.79757 15.0467 5.67122 15.0732 5.54179L15.2597 4.62919L14.1936 4.41132L14.0071 5.32391C13.9839 5.43719 13.8843 5.51525 13.773 5.51525C13.7571 5.51525 13.741 5.51366 13.7248 5.51038C13.5954 5.48391 13.5119 5.35757 13.5384 5.22813L13.7728 4.08154Z" fill="#DD636E"/>
<path d="M0.33793 11.9483C0.341336 11.8325 0.413586 11.7313 0.521993 11.6905C0.630368 11.6497 0.75143 11.6781 0.830399 11.7629C0.831711 11.7643 0.833024 11.7657 0.834305 11.7672L2.22984 13.3416C2.31749 13.4404 2.30834 13.5916 2.20949 13.6792C2.11065 13.7669 1.95943 13.7577 1.87187 13.6589L1.63365 13.3902L0.817118 13.6987L0.817274 14.0567C0.817336 14.1888 0.710305 14.296 0.578212 14.2961L0.578087 14.2961C0.446024 14.2961 0.338961 14.1891 0.338898 14.057L0.337868 11.9555C0.337836 11.9531 0.337867 11.9507 0.33793 11.9483ZM1.29409 13.0071L0.816493 12.4683L0.816836 13.1874L1.29409 13.0071Z" fill="#DD636E"/>
<path d="M1.81896 11.1823C1.94246 11.1356 2.08052 11.1979 2.12727 11.3215L2.38312 11.9984L3.22652 11.6797L2.97068 11.0027C2.92396 10.8792 2.98627 10.7411 3.10987 10.6944C3.23334 10.6477 3.37146 10.71 3.41818 10.8336L3.75853 11.7342C3.75853 11.7342 3.75856 11.7343 3.75859 11.7343C3.75859 11.7343 3.75862 11.7344 3.75862 11.7344L4.12315 12.699C4.16987 12.8225 4.10756 12.9606 3.98396 13.0073C3.95612 13.0178 3.92756 13.0228 3.89943 13.0228C3.80281 13.0228 3.71184 12.9638 3.67565 12.8681L3.39562 12.1272L2.55221 12.4459L2.83224 13.1869C2.87896 13.3105 2.81665 13.4485 2.69305 13.4952C2.66521 13.5057 2.63665 13.5107 2.60852 13.5107C2.5119 13.5107 2.42093 13.4517 2.38474 13.356L1.67974 11.4906C1.63305 11.367 1.69536 11.229 1.81896 11.1823Z" fill="#DD636E"/>
</g>
<defs>
<clipPath id="clip0_2160_55156">
<rect width="16" height="16" fill="white" transform="matrix(-1 -8.74228e-08 -8.74228e-08 1 16 0)"/>
</clipPath>
</defs>
</svg>
