<svg width="24" height="16" viewBox="0 0 24 16" fill="none" xmlns="http://www.w3.org/2000/svg">
<path d="M0.000592315 8.22036C0.240837 7.83756 0.45623 7.43281 0.72547 7.07583C2.17818 5.14957 3.87529 3.54155 5.92685 2.40864C7.3269 1.63529 8.80327 1.14275 10.3702 0.980724C13.4141 0.665705 16.1668 1.54751 18.6882 3.3821C20.325 4.57311 21.6901 6.07461 22.8795 7.77429C23.173 8.19324 23.1736 8.64705 22.8813 9.06471C21.5084 11.0252 19.9048 12.7107 17.945 13.9656C16.3242 15.0036 14.5881 15.6627 12.7087 15.8563C9.97373 16.1384 7.44761 15.4445 5.09782 13.9281C3.15456 12.6745 1.56751 10.9936 0.208885 9.04341C0.120124 8.91624 0.0686415 8.75808 0 8.61478C0.000591737 8.48244 0.000592315 8.3514 0.000592315 8.22036ZM11.3903 3.12712C8.75534 3.18199 6.64817 5.62791 6.69551 8.57669C6.74167 11.4629 8.98789 13.7635 11.7046 13.7074C14.3307 13.6531 16.4515 11.1917 16.4012 8.25522C16.3527 5.36711 14.1088 3.07031 11.3903 3.12712Z" fill="#FF9F00"/>
<path d="M14.1656 8.42303C14.1555 10.0026 12.9554 11.284 11.501 11.2679C10.0837 11.2517 8.92867 9.95745 8.93755 8.39462C8.94584 6.82405 10.1536 5.54783 11.6146 5.56462C13.0199 5.58011 14.1756 6.8744 14.1656 8.42303Z" fill="#FF9F00"/>
</svg>
