<svg width="25" height="26" viewBox="0 0 25 26" fill="none" xmlns="http://www.w3.org/2000/svg">
<path d="M13.2838 25.998C12.7628 25.998 12.2418 25.998 11.7208 25.998C11.416 25.9604 11.1103 25.9276 10.806 25.8841C8.31792 25.5279 6.11943 24.5314 4.23992 22.8623C2.06883 20.9343 0.713256 18.5367 0.194702 15.6754C0.111048 15.2131 0.0640855 14.7444 0 14.2787C0 13.7577 0 13.2372 0 12.7162C0.0376686 12.4109 0.0694821 12.1047 0.11351 11.7999C0.50634 9.08289 1.64471 6.72493 3.57266 4.7691C5.94089 2.36614 8.82719 1.10595 12.1998 1.0042C14.5646 0.932773 16.7953 1.48215 18.8118 2.72081C22.7421 5.13551 24.8383 8.66755 24.9929 13.2881C25.079 15.8539 24.3682 18.2295 22.9368 20.3619C20.9496 23.3216 18.1915 25.1434 14.68 25.8029C14.2182 25.8894 13.749 25.934 13.2838 25.998ZM13.5402 10.325C13.5402 9.32407 13.5367 8.32316 13.5421 7.32225C13.5441 6.97638 13.4443 6.67895 13.1752 6.45636C12.844 6.1829 12.4673 6.12811 12.0784 6.30226C11.6577 6.49061 11.4645 6.83598 11.4645 7.29681C11.4659 9.49382 11.4694 11.6908 11.4611 13.8883C11.4596 14.2821 11.5931 14.5879 11.871 14.8638C13.5338 16.5153 15.1883 18.1757 16.8462 19.8321C16.921 19.907 16.9949 19.9833 17.0781 20.0484C17.5487 20.4153 18.2204 20.312 18.5633 19.8224C18.8715 19.3821 18.8084 18.8518 18.3886 18.4315C16.8359 16.8769 15.2827 15.3227 13.7251 13.7729C13.5949 13.6437 13.5343 13.516 13.5357 13.3287C13.545 12.3268 13.5402 11.3259 13.5402 10.325Z" fill="#FF9F00"/>
</svg>
