<svg width="35" height="36" viewBox="0 0 35 36" fill="none" xmlns="http://www.w3.org/2000/svg">
<path d="M14.0144 35.9245C13.5741 35.7043 13.0605 35.5576 12.6937 35.2641C11.2996 34.0167 11.7765 31.7422 13.5008 31.0818C13.6108 31.0451 13.6842 31.0084 13.7943 30.9351C13.3907 30.9351 12.9505 30.9351 12.5469 30.9351C11.2629 30.9351 10.6392 30.3848 10.3824 29.1374C9.28178 23.4876 8.21786 17.8378 7.11725 12.1881C7.04388 11.7478 6.82376 11.5644 6.38351 11.5644C6.12671 11.5644 5.90659 11.5644 5.64978 11.5644C5.53972 11.5644 5.39297 11.6378 5.35628 11.7111C5.06279 12.0413 4.69592 12.1881 4.25568 12.1881C3.30182 12.1881 2.31127 12.1881 1.35741 12.1881C0.550303 12.1881 0 11.6378 0 10.9407C0 10.207 0.550303 9.69336 1.3941 9.69336C2.34796 9.69336 3.30182 9.69336 4.25568 9.69336C4.69592 9.69336 5.06279 9.8401 5.35628 10.1703C5.42966 10.2437 5.53972 10.2803 5.64978 10.2803C5.8699 10.2803 6.12671 10.2803 6.38351 10.2803C7.44743 10.2803 8.14448 10.904 8.3646 11.9313C8.62141 13.252 8.87822 14.536 9.13503 15.8934C10.4924 15.8934 11.8865 15.8934 13.244 15.8934C13.4641 16.9574 13.6475 17.9479 13.8676 19.0118C12.4735 19.0118 11.1161 19.0118 9.72202 19.0118C9.79539 19.3787 9.83208 19.7456 9.94214 20.0757C9.97883 20.1491 10.1623 20.2592 10.2723 20.2592C11.4463 20.2592 12.5836 20.2592 13.7576 20.2592C14.0511 20.2592 14.1611 20.3325 14.2345 20.626C14.3813 21.5432 14.6014 22.4237 14.7848 23.3776C13.3907 23.3776 12.0333 23.3776 10.6025 23.3776C10.6759 23.7811 10.7126 24.148 10.8226 24.4782C10.8593 24.5515 11.0427 24.6249 11.1528 24.6249C12.3268 24.6249 13.5008 24.6249 14.6747 24.6249C14.9682 24.6249 15.0783 24.6983 15.115 24.9918C15.225 25.6888 15.3718 26.3859 15.5552 27.1563C14.1244 27.1563 12.767 27.1563 11.3362 27.1563C11.483 27.8167 11.5931 28.477 11.7031 29.1007C11.7765 29.4676 11.9966 29.651 12.3635 29.651C12.4735 29.651 12.6203 29.651 12.7303 29.651C19.0038 29.651 25.2773 29.651 31.5507 29.651C31.6608 29.651 31.8075 29.651 31.9176 29.651C32.2478 29.6877 32.4679 29.9078 32.5046 30.2013C32.5413 30.5315 32.3211 30.7883 31.9909 30.8617C31.8809 30.8984 31.7341 30.8617 31.6241 30.8617C30.23 30.8617 28.8726 30.8617 27.4785 30.8984C27.5518 30.935 27.6252 30.9717 27.6986 30.9717C28.7625 31.3386 29.4596 32.3292 29.4229 33.3931C29.3862 34.5304 28.6158 35.4842 27.5151 35.7777C27.4418 35.7777 27.4051 35.8144 27.3317 35.8511C27.0749 35.8511 26.7814 35.8511 26.5246 35.8511C26.4512 35.8144 26.4145 35.7777 26.3412 35.7777C25.2406 35.4842 24.5068 34.567 24.4701 33.4664C24.4335 32.3292 25.0938 31.3753 26.1944 30.9717C26.2678 30.9351 26.3412 30.935 26.4145 30.8617C22.5991 30.8617 18.8204 30.8617 14.9682 30.8617C15.1517 30.935 15.2617 30.9351 15.3351 30.9717C16.3257 31.3753 16.876 32.109 16.9493 33.1363C17.0227 34.1268 16.5825 34.9339 15.7387 35.4475C15.4819 35.5943 15.1517 35.7043 14.8582 35.8144C14.528 35.9245 14.2712 35.9245 14.0144 35.9245Z" fill="white"/>
<path d="M35.0018 16.8082C34.7817 17.4686 34.5616 18.0923 34.3781 18.7526C34.3048 19.0094 34.1947 19.0828 33.9379 19.0828C32.7272 19.0828 31.4799 19.0828 30.2692 19.0828C30.1592 19.0828 30.0491 19.0828 29.9023 19.0828C30.1225 18.0189 30.3059 17.0283 30.526 15.9644C30.6361 15.9644 30.7461 15.9277 30.8195 15.9277C31.9201 15.9277 33.0574 15.9277 34.158 15.9277C34.5249 15.9277 34.8184 16.0378 35.0018 16.4047C35.0018 16.5514 35.0018 16.6982 35.0018 16.8082Z" fill="white"/>
<path d="M15.0391 0.998047C20.0285 0.998047 25.0179 0.998047 30.0073 0.998047C30.0073 5.54722 30.0073 10.0964 30.0073 14.6822C25.0179 14.6822 20.0652 14.6822 15.0391 14.6822C15.0391 10.1331 15.0391 5.5839 15.0391 0.998047ZM22.4865 10.9402C23.9173 10.9402 25.3114 10.9402 26.7422 10.9402C27.6227 10.9402 28.0996 10.4633 28.0996 9.58278C28.0996 8.00524 28.0996 6.39102 28.0996 4.81348C28.0996 3.933 27.6227 3.45607 26.7422 3.45607C23.9173 3.45607 21.0557 3.45607 18.2308 3.45607C17.387 3.45607 16.8734 3.933 16.8734 4.81348C16.8734 6.39102 16.8734 7.96855 16.8734 9.54609C16.8734 10.4266 17.3503 10.9035 18.2308 10.9035C19.6616 10.9769 21.0924 10.9402 22.4865 10.9402Z" fill="white"/>
<path d="M21.241 19.0504C19.1866 19.0504 17.2055 19.0504 15.151 19.0504C14.9309 18.0232 14.7475 16.996 14.5273 15.9688C16.8019 15.9688 19.0031 15.9688 21.241 15.9688C21.241 16.996 21.241 18.0232 21.241 19.0504Z" fill="white"/>
<path d="M22.5234 19.0504C22.5234 17.9865 22.5234 16.996 22.5234 15.9688C24.7613 15.9688 26.9625 15.9688 29.2371 15.9688C29.017 16.996 28.8336 18.0232 28.6135 19.0504C26.559 19.0504 24.5412 19.0504 22.5234 19.0504Z" fill="white"/>
<path d="M21.2434 20.334C21.2434 21.3612 21.2434 22.3884 21.2434 23.4157C19.5191 23.4157 17.7948 23.4157 16.0338 23.4157C15.8137 22.3884 15.6303 21.3979 15.4102 20.334C17.3546 20.334 19.299 20.334 21.2434 20.334Z" fill="white"/>
<path d="M28.3566 20.3691C28.1365 21.3964 27.9531 22.4236 27.733 23.4508C26.0087 23.4508 24.2477 23.4508 22.5234 23.4508C22.5234 22.4236 22.5234 21.4331 22.5234 20.3691C24.4678 20.3691 26.3756 20.3691 28.3566 20.3691Z" fill="white"/>
<path d="M13.7224 14.6816C13.3188 14.6816 12.9153 14.6816 12.5117 14.6816C12.5117 14.5715 12.5117 14.4614 12.5117 14.3514C12.5117 10.5359 12.5117 6.72052 12.5117 2.90508C12.5117 2.0246 12.952 1.36423 13.7224 1.10742C13.7224 5.65659 13.7224 10.1691 13.7224 14.6816Z" fill="white"/>
<path d="M29.0195 23.4508C29.2397 22.4236 29.4231 21.4697 29.6065 20.5159C29.6065 20.4425 29.7533 20.3691 29.8266 20.3691C31.1841 20.3691 32.5048 20.3691 33.8989 20.3691C33.8255 20.6626 33.7521 20.8827 33.6788 21.1396C33.4586 21.8366 33.2752 22.5704 33.0184 23.2674C32.9817 23.3408 32.8717 23.4875 32.7983 23.4875C31.5509 23.4508 30.3036 23.4508 29.0195 23.4508Z" fill="white"/>
<path d="M16.766 27.1553C16.6192 26.3482 16.4358 25.5411 16.2891 24.6973C17.94 24.6973 19.5909 24.6973 21.2418 24.6973C21.2418 25.5044 21.2418 26.3115 21.2418 27.1553C19.7743 27.1553 18.2702 27.1553 16.766 27.1553Z" fill="white"/>
<path d="M26.9992 27.1904C25.4951 27.1904 24.0276 27.1904 22.5234 27.1904C22.5234 26.3833 22.5234 25.5762 22.5234 24.7324C24.1743 24.7324 25.8253 24.7324 27.4762 24.7324C27.3294 25.5395 27.146 26.3466 26.9992 27.1904Z" fill="white"/>
<path d="M32.5791 24.6973C32.3589 25.431 32.1755 26.1281 31.9554 26.7884C31.882 27.0452 31.6619 27.192 31.3684 27.192C30.3412 27.192 29.3139 27.192 28.25 27.192C28.3601 26.6417 28.4701 26.0914 28.5802 25.5411C28.7636 24.6973 28.7636 24.6973 29.6441 24.6973C30.4879 24.6973 31.3317 24.6973 32.1755 24.6973C32.2856 24.6973 32.3956 24.6973 32.5791 24.6973Z" fill="white"/>
<path d="M18.1602 4.74219C21.0584 4.74219 23.9567 4.74219 26.8549 4.74219C26.8549 6.3931 26.8549 8.044 26.8549 9.69491C23.9567 9.69491 21.0584 9.69491 18.1602 9.69491C18.1602 8.044 18.1602 6.42978 18.1602 4.74219Z" fill="white"/>
</svg>
