<svg width="25" height="26" viewBox="0 0 25 26" fill="none" xmlns="http://www.w3.org/2000/svg">
<rect width="25" height="25" transform="translate(0 0.998047)" fill="white"/>
<path d="M12.4987 12.4561C13.88 12.4561 15.2048 13.0048 16.1816 13.9815C17.1583 14.9583 17.707 16.2831 17.707 17.6644V23.9144H7.29037V17.6644C7.29037 16.2831 7.8391 14.9583 8.81585 13.9815C9.79261 13.0048 11.1174 12.4561 12.4987 12.4561ZM5.50703 15.5873C5.34126 16.1465 5.24333 16.7235 5.21537 17.3061L5.20703 17.6644V23.9144H2.08203V19.2269C2.08183 18.3285 2.41331 17.4617 3.0129 16.7927C3.61249 16.1237 4.43797 15.6997 5.33099 15.6019L5.50808 15.5873H5.50703ZM19.4904 15.5873C20.4174 15.6438 21.2879 16.0518 21.9243 16.7282C22.5608 17.4045 22.9152 18.2982 22.9154 19.2269V23.9144H19.7904V17.6644C19.7904 16.9425 19.6862 16.2456 19.4904 15.5873ZM5.72787 9.33105C6.41854 9.33105 7.08092 9.60542 7.56929 10.0938C8.05767 10.5822 8.33204 11.2446 8.33204 11.9352C8.33204 12.6259 8.05767 13.2883 7.56929 13.7766C7.08092 14.265 6.41854 14.5394 5.72787 14.5394C5.0372 14.5394 4.37482 14.265 3.88644 13.7766C3.39807 13.2883 3.1237 12.6259 3.1237 11.9352C3.1237 11.2446 3.39807 10.5822 3.88644 10.0938C4.37482 9.60542 5.0372 9.33105 5.72787 9.33105ZM19.2695 9.33105C19.9602 9.33105 20.6226 9.60542 21.111 10.0938C21.5993 10.5822 21.8737 11.2446 21.8737 11.9352C21.8737 12.6259 21.5993 13.2883 21.111 13.7766C20.6226 14.265 19.9602 14.5394 19.2695 14.5394C18.5789 14.5394 17.9165 14.265 17.4281 13.7766C16.9397 13.2883 16.6654 12.6259 16.6654 11.9352C16.6654 11.2446 16.9397 10.5822 17.4281 10.0938C17.9165 9.60542 18.5789 9.33105 19.2695 9.33105ZM12.4987 3.08105C13.6038 3.08105 14.6636 3.52004 15.445 4.30144C16.2264 5.08284 16.6654 6.14265 16.6654 7.24772C16.6654 8.35279 16.2264 9.4126 15.445 10.194C14.6636 10.9754 13.6038 11.4144 12.4987 11.4144C11.3936 11.4144 10.3338 10.9754 9.55242 10.194C8.77102 9.4126 8.33204 8.35279 8.33204 7.24772C8.33204 6.14265 8.77102 5.08284 9.55242 4.30144C10.3338 3.52004 11.3936 3.08105 12.4987 3.08105Z" fill="#FF9F00"/>
</svg>
