<svg width="18" height="24" viewBox="0 0 18 24" fill="none" xmlns="http://www.w3.org/2000/svg">
<path d="M0.85 21.3997L0.85 21.4C0.853461 22.9855 2.75588 23.7293 3.83678 22.6167C3.83686 22.6166 3.83693 22.6165 3.83701 22.6164L8.48668 17.8813L8.48671 17.8813L8.4889 17.879C8.80233 17.5459 9.37414 17.5459 9.68757 17.879L9.68755 17.879L9.68979 17.8813L14.3395 22.6164C14.3395 22.6165 14.3396 22.6166 14.3397 22.6167C15.4211 23.7298 17.3232 22.9848 17.3265 21.4V21.3997V3.02346C17.3265 1.7989 16.3465 0.848047 15.1882 0.848047H2.9883C1.82994 0.848047 0.85 1.7989 0.85 3.02346L0.85 21.3997ZM15.4509 21.4974L15.451 21.4974L15.4482 21.4945C14.5189 20.5464 11.8693 17.8482 10.8007 16.7616C9.90158 15.8053 8.27623 15.805 7.37746 16.7598C6.64392 17.5057 5.21404 18.9618 4.07973 20.1169L4.05878 20.1383L2.7346 21.4866L2.73456 21.4865L2.73152 21.4898C2.67529 21.5506 2.59037 21.5706 2.52215 21.5529C2.46294 21.5374 2.41759 21.4955 2.4155 21.4098V3.02346C2.4155 2.69316 2.67737 2.43722 2.9883 2.43722H15.1881C15.4986 2.43722 15.7609 2.6928 15.7609 3.02346V21.3993C15.7604 21.4811 15.7149 21.5301 15.6525 21.55C15.5851 21.5715 15.5051 21.5556 15.4509 21.4974Z" fill="#FF2350" stroke="#FF2350" stroke-width="0.3"/>
</svg>
