<svg width="18" height="18" viewBox="0 0 18 18" fill="none" xmlns="http://www.w3.org/2000/svg">
<path d="M9.56434 18C9.18922 18 8.81411 18 8.43899 18C8.21955 17.9729 7.99941 17.9493 7.78032 17.9179C5.9889 17.6615 4.40599 16.944 3.05274 15.7422C1.48956 14.3541 0.513545 12.6279 0.140185 10.5677C0.0799546 10.2348 0.0461416 9.89739 0 9.56208C0 9.18695 0 8.81219 0 8.43707C0.0271214 8.21728 0.0500271 7.99679 0.0817274 7.77735C0.364565 5.82109 1.18419 4.12336 2.57232 2.71516C4.27744 0.985024 6.35558 0.077691 8.78382 0.00442805C10.4865 -0.0469969 12.0926 0.348552 13.5445 1.24039C16.3743 2.97897 17.8836 5.52205 17.9949 8.84882C18.0569 10.6962 17.5451 12.4067 16.5145 13.942C15.0837 16.073 13.0979 17.3847 10.5696 17.8595C10.2371 17.9218 9.89931 17.9539 9.56434 18ZM9.74892 6.71539C9.74892 5.99473 9.74645 5.27408 9.75033 4.55343C9.75174 4.3044 9.67988 4.09025 9.48616 3.92999C9.2477 3.73309 8.97649 3.69364 8.69647 3.81904C8.39356 3.95464 8.25442 4.20331 8.25442 4.53511C8.25547 6.11696 8.25795 7.6988 8.25196 9.281C8.2509 9.56454 8.34705 9.78469 8.54712 9.98334C9.74434 11.1725 10.9356 12.3679 12.1293 13.5605C12.1832 13.6144 12.2363 13.6694 12.2962 13.7162C12.6351 13.9804 13.1187 13.9061 13.3656 13.5535C13.5875 13.2365 13.542 12.8547 13.2398 12.5521C12.1219 11.4327 11.0035 10.3137 9.88205 9.19788C9.78836 9.10489 9.74468 9.01296 9.74574 8.87806C9.75243 8.1567 9.74892 7.43604 9.74892 6.71539Z" fill="#FF9F00"/>
</svg>
