<svg width="22" height="24" viewBox="0 0 22 24" fill="none" xmlns="http://www.w3.org/2000/svg">
<path d="M17.4146 22.998C16.9976 22.8753 16.5573 22.8016 16.1667 22.6213C14.4504 21.8281 13.5899 19.9821 14.0517 18.1556C14.0641 18.1071 14.076 18.0587 14.0927 17.9914C14.0355 17.9586 13.9773 17.922 13.9158 17.8902C12.0188 16.9237 10.1201 15.9603 8.22692 14.9868C8.06074 14.9012 7.98844 14.9313 7.87892 15.0664C6.79661 16.3984 5.04259 16.8521 3.42939 16.2267C1.90035 15.6342 0.883866 14.0735 1.01066 12.4057C1.13313 10.7982 1.96455 9.63356 3.47201 9.05072C5.01453 8.45388 6.41948 8.78594 7.61886 9.92579C7.75105 10.0517 7.83252 10.0733 7.99384 9.97584C9.98903 8.77141 11.9891 7.57558 13.9875 6.3776C14.0485 6.34101 14.1084 6.3028 14.1817 6.25759C13.7766 5.13819 13.8386 4.0457 14.4067 3.00217C14.8545 2.17984 15.5268 1.58839 16.4073 1.25849C18.2498 0.568012 20.2207 1.28647 21.193 2.98711C22.1037 4.5801 21.705 6.65423 20.2655 7.84736C18.8519 9.01897 16.4478 9.16051 14.8432 7.37807C14.7855 7.41036 14.7234 7.44319 14.663 7.47925C12.664 8.67669 10.6661 9.87628 8.6634 11.0683C8.51017 11.1593 8.47564 11.2341 8.53715 11.4036C8.78641 12.0876 8.81339 12.79 8.64128 13.495C8.59758 13.6736 8.63265 13.7576 8.7999 13.8421C10.6807 14.7925 12.5572 15.7521 14.4348 16.7089C14.5109 16.7477 14.5886 16.7837 14.6716 16.8236C14.827 16.6589 14.9684 16.4872 15.1313 16.3392C16.2476 15.3237 17.5479 14.9981 18.982 15.4588C20.4317 15.9248 21.3209 16.9538 21.6111 18.4494C22.0244 20.5816 20.5143 22.6515 18.3534 22.9555C18.2978 22.9636 18.2439 22.9835 18.1894 22.998C17.9315 22.998 17.6731 22.998 17.4146 22.998ZM17.8004 2.28264C16.3766 2.28371 15.2133 3.44778 15.2171 4.86803C15.2209 6.27912 16.3782 7.43458 17.7934 7.43889C19.2178 7.44373 20.3858 6.2845 20.3875 4.86426C20.3896 3.44402 19.2248 2.28156 17.8004 2.28264ZM4.87426 10.0619C3.45043 10.0614 2.28557 11.2239 2.28773 12.6441C2.28989 14.0557 3.44611 15.2117 4.86077 15.2182C6.28514 15.2241 7.4543 14.0665 7.45808 12.6468C7.46186 11.2266 6.29862 10.0625 4.87426 10.0619ZM15.2171 19.1323C15.2182 20.552 16.3857 21.7123 17.8101 21.708C19.2253 21.7043 20.3831 20.5494 20.3875 19.1383C20.3918 17.718 19.2296 16.5534 17.8053 16.5518C16.3814 16.5502 15.216 17.7121 15.2171 19.1323Z" fill="#FF9F00" stroke="#FF9F00" stroke-width="0.5"/>
</svg>
