<svg width="25" height="25" viewBox="0 0 25 25" fill="none" xmlns="http://www.w3.org/2000/svg">
<path d="M25 2.76635C25 1.65436 24.0986 0.75293 22.9866 0.75293H2.01342C0.901426 0.75293 0 1.65436 0 2.76635V22.2294C0 23.3414 0.901426 24.2429 2.01342 24.2429H22.9866C24.0986 24.2429 25 23.3414 25 22.2294V2.76635ZM7.63423 3.26971H11.2416V6.12206H7.63423V3.26971ZM5.11745 21.7261H2.51678V18.8737H5.11745V21.7261ZM5.11745 6.12206H2.51678V3.26971H5.11745V6.12206ZM11.2416 21.7261H7.63423V18.8737H11.2416V21.7261ZM10.3188 14.8224V10.1733C10.3188 9.4812 10.8111 9.22516 11.3901 9.60427L14.7657 11.8083C15.3447 12.1874 15.3494 12.8078 14.7704 13.187L11.3878 15.3914C10.8087 15.7706 10.3188 15.5145 10.3188 14.8224ZM17.3658 21.7261H13.7584V18.8737H17.3658V21.7261ZM17.3658 6.12206H13.7584V3.26971H17.3658V6.12206ZM22.4832 21.7261H19.8826V18.8737H22.4832V21.7261ZM22.4832 6.12206H19.8826V3.26971H22.4832V6.12206Z" fill="#FF9F00"/>
</svg>
