<svg width="21" height="20" viewBox="0 0 21 20" fill="none" xmlns="http://www.w3.org/2000/svg">
<path d="M10.3156 0.189453L13.4431 6.53177L20.4362 7.54878L15.3758 12.4856L16.5705 19.4567L10.3156 16.1654L4.06094 19.4567L5.25546 12.4856L0.195312 7.54878L7.1884 6.53177L10.3156 0.189453Z" fill="url(#paint0_linear_3925_34444)"/>
<g opacity="0.8">
<path d="M10.6249 0.816757L10.3156 0.189453L7.1884 6.53177L0.195312 7.54878L0.643409 7.9861L7.58771 6.97613L10.6249 0.816757Z" fill="white"/>
</g>
<path d="M20.4377 7.55358L19.2231 7.37695L14.7559 11.7353L15.9504 18.7062L9.69576 15.4149L4.2664 18.272L4.0625 19.4615L10.3172 16.1702L16.5718 19.4615L15.3773 12.4904L20.4377 7.55358Z" fill="#F9B715"/>
<defs>
<linearGradient id="paint0_linear_3925_34444" x1="4.33874" y1="2.68175" x2="16.1299" y2="18.7841" gradientUnits="userSpaceOnUse">
<stop offset="0.534375" stop-color="#FAFF00"/>
<stop offset="1" stop-color="#FFC312"/>
</linearGradient>
</defs>
</svg>
